<?xml version="1.0" encoding="UTF-8"?>
<svg version="1.1" xmlns="http://www.w3.org/2000/svg" width="2066" height="2146">
<path d="M0 0 C1.06228922 -0.00177501 2.12457844 -0.00355002 3.21905824 -0.00537882 C6.7857186 -0.01011724 10.3523385 -0.00774616 13.91900074 -0.00541991 C16.51015943 -0.00737315 19.10131781 -0.00976211 21.69247574 -0.01254788 C27.34760812 -0.01791434 33.0027322 -0.01956581 38.65786694 -0.01879714 C47.12409092 -0.01766068 55.59030524 -0.02224609 64.05652705 -0.02792798 C78.4860754 -0.03743586 92.91562182 -0.04214633 107.345173 -0.04423732 C121.97053687 -0.04636597 136.59589775 -0.05062629 151.22126019 -0.05748004 C152.14469564 -0.05791065 153.0681311 -0.05834127 154.01954944 -0.05878493 C157.78053699 -0.06054329 161.54152453 -0.06231293 165.30251207 -0.06409795 C210.89824732 -0.08569609 256.49398316 -0.09657675 302.08972236 -0.10557419 C316.87700919 -0.10850842 331.66429588 -0.11187835 346.45158255 -0.1155414 C347.4948788 -0.11579969 348.53817505 -0.11605798 349.61308634 -0.1163241 C353.83398515 -0.11737034 358.05488396 -0.11841876 362.27578276 -0.11946992 C434.48024136 -0.13743545 506.68470019 -0.15281369 578.8891607 -0.16022895 C584.56069987 -0.16081292 590.23223904 -0.16141019 595.9037782 -0.16200657 C597.59134778 -0.16218375 597.59134778 -0.16218375 599.31300967 -0.16236451 C610.7111917 -0.16356188 622.10937374 -0.16477065 633.50755577 -0.16599704 C635.79291372 -0.16624227 638.07827167 -0.16648613 640.36362961 -0.16672861 C713.74285095 -0.1745164 787.12205628 -0.19689505 860.50127062 -0.22940504 C913.22601472 -0.25275638 965.95075563 -0.2743052 1018.6755048 -0.28141135 C1020.30261145 -0.28163188 1020.30261145 -0.28163188 1021.96258893 -0.28185687 C1045.7776775 -0.28504199 1069.59276605 -0.28709268 1093.40785481 -0.28808442 C1102.99066851 -0.28849914 1112.5734822 -0.28905404 1122.1562959 -0.28964633 C1123.20505831 -0.289707 1124.25382072 -0.28976766 1125.33436381 -0.28983017 C1159.09302545 -0.29184473 1192.85166817 -0.30607268 1226.61032321 -0.32659133 C1260.62527433 -0.34719238 1294.64020361 -0.35505596 1328.65516034 -0.34551357 C1333.36116119 -0.34419521 1338.06716206 -0.34301713 1342.77316296 -0.34192294 C1343.69562405 -0.34170309 1344.61808515 -0.34148324 1345.56849961 -0.34125673 C1360.14353177 -0.33814888 1374.71852202 -0.34844368 1389.29354449 -0.36439849 C1403.64416725 -0.37982726 1417.99473236 -0.38086122 1432.34535719 -0.36685025 C1440.74588715 -0.35907365 1449.14624033 -0.36205771 1457.54675241 -0.38148742 C1463.8051021 -0.39472072 1470.06326508 -0.38677129 1476.32160515 -0.37100006 C1478.82165889 -0.36787549 1481.32173272 -0.37131012 1483.8217634 -0.38249181 C1545.94178731 -0.64201346 1601.84886713 22.82402666 1646.17982113 66.12880117 C1648.63151922 68.70609854 1650.90383794 71.39664031 1653.17982113 74.12880117 C1653.96357113 75.00149648 1654.74732113 75.87419179 1655.55482113 76.77333242 C1690.70253252 116.21244808 1708.66026636 168.1097966 1708.55482113 220.50380117 C1708.55460965 221.47413289 1708.55439816 222.44446462 1708.55418026 223.44420034 C1708.52103921 238.69741154 1707.65654016 253.22204696 1704.17982113 268.12880117 C1703.99790219 268.95412343 1703.81598324 269.7794457 1703.6285516 270.62977773 C1693.34281362 316.64443754 1667.03520153 361.32936556 1629.96888363 390.89051992 C1628.18783855 392.31984601 1626.42962294 393.77842073 1624.70325863 395.27333242 C1616.19528247 402.58281658 1606.78923935 408.38488729 1597.17982113 414.12880117 C1596.54592465 414.50923574 1595.91202816 414.88967031 1595.2589227 415.2816332 C1560.89469383 435.57389161 1520.77240539 443.29897038 1481.29929745 443.26683217 C1479.85269151 443.26925742 1478.40608625 443.27212188 1476.95948195 443.27538151 C1473.02445424 443.28305325 1469.08944404 443.28474952 1465.15440977 443.28543264 C1460.89352681 443.28728744 1456.63265375 443.29490324 1452.3717767 443.30191213 C1444.99471677 443.31339702 1437.61765908 443.3216632 1430.24059308 443.32803136 C1418.54345104 443.33841825 1406.84633683 443.35900037 1395.149212 443.38115102 C1391.13462278 443.38862984 1387.12003345 443.39604384 1383.10544407 443.40343839 C1381.60058567 443.40621424 1381.60058567 443.40621424 1380.06532609 443.40904617 C1368.66225032 443.42994446 1357.25917149 443.44878253 1345.85609066 443.46669179 C1344.81477323 443.46832997 1343.7734558 443.46996816 1342.70058329 443.47165598 C1325.88049689 443.49785945 1309.06040833 443.51654989 1292.24031024 443.5332837 C1274.90527766 443.55080578 1257.57028721 443.57976011 1240.23528838 443.61817306 C1229.58287081 443.64136396 1218.930522 443.65554852 1208.27807899 443.6575007 C1200.94821312 443.65963712 1193.61841511 443.67278704 1186.28857987 443.69398002 C1182.08357979 443.70580969 1177.87871413 443.71329837 1173.67369854 443.70726758 C1156.71151415 443.68624576 1139.88981102 444.08380689 1122.98148739 445.51420766 C1122.25427595 445.57562178 1121.5270645 445.6370359 1120.77781634 445.70031105 C1029.52883019 453.58249725 939.9323284 484.6216341 836.17982113 553.12880117 C835.24903744 553.80845937 835.24903744 553.80845937 834.29945004 554.50184804 C820.87105576 564.33786857 807.80275129 574.6895441 795.55091488 585.96864492 C793.52156751 587.81745727 791.4665783 589.62509674 789.39466488 591.42567617 C785.28418974 595.01391293 781.27944648 598.70366121 777.30482113 602.44130117 C776.61009701 603.09429189 775.91537289 603.74728261 775.19959652 604.42006093 C767.89242415 611.31132967 760.68143801 618.23657954 754.14857113 625.87880117 C752.1021262 628.21759537 749.99602397 630.48932946 747.87464535 632.75990468 C742.03570477 639.01383685 736.51804167 645.43811201 731.17982113 652.12880117 C730.25890928 653.25849325 729.33698002 654.38735649 728.41419613 655.51551992 C705.77834313 683.30715032 686.41663821 713.62619164 669.29847348 745.07948476 C668.26499414 746.97276838 667.21836632 748.85807692 666.16810238 750.74208242 C628.8107844 818.40033609 607.9103472 898.19808561 603.17982113 975.12880117 C603.13852078 975.78705892 603.09722043 976.44531667 603.05466855 977.12352163 C602.31128022 989.19226661 601.97632027 1001.22542878 601.99232113 1013.31630117 C601.99292538 1014.17531026 601.99352963 1015.03431936 601.99415219 1015.91935903 C602.1667914 1107.43392886 624.40810666 1198.69059024 733.17982113 1378.12880117 C733.65516293 1378.70323964 734.13050473 1379.27767812 734.62025082 1379.86952382 C741.07291944 1387.66104216 747.80109937 1395.15109164 754.7066766 1402.54237539 C756.14755782 1404.09405688 757.57444775 1405.65727086 758.99622738 1407.22645742 C766.91467503 1415.96463464 774.98113615 1424.53414036 783.96497738 1432.19520742 C786.29293065 1434.22754757 788.55097875 1436.32222956 790.80872738 1438.43177968 C797.06307922 1444.27165374 803.48747463 1449.79107172 810.17982113 1455.12880117 C811.29773307 1456.03806747 812.41488173 1456.94827276 813.53138363 1457.85926992 C840.81944962 1480.03755914 870.18260774 1499.52584031 901.17982113 1516.12880117 C902.04800473 1516.59640859 902.91618832 1517.06401601 903.81068051 1517.54579335 C964.9895468 1550.38667806 1031.68391971 1571.60566744 1100.55482113 1580.37880117 C1102.33276059 1580.60575673 1102.33276059 1580.60575673 1104.14661801 1580.83729726 C1127.66112546 1583.64495229 1151.053068 1584.43094558 1174.70404458 1584.41615731 C1178.9706111 1584.41573049 1183.23715087 1584.42690397 1187.50370419 1584.43661672 C1194.86912502 1584.45194 1202.23452699 1584.46045235 1209.59996235 1584.46432668 C1220.2736648 1584.4701263 1230.94731713 1584.48879472 1241.62099717 1584.51076722 C1258.97921996 1584.54634074 1276.33744561 1584.57471588 1293.69569027 1584.59706289 C1295.24811653 1584.59906537 1295.24811653 1584.59906537 1296.83190493 1584.60110831 C1305.22832561 1584.61188409 1313.62474672 1584.6223063 1322.02116787 1584.63270837 C1329.36580055 1584.64182135 1336.71043304 1584.65107387 1344.05506527 1584.66053945 C1345.08963963 1584.66187019 1346.12421398 1584.66320093 1347.19013908 1584.664572 C1364.49496775 1584.68707021 1381.79977483 1584.71729093 1399.1045813 1584.75293189 C1409.74093313 1584.77446938 1420.37725141 1584.78918152 1431.01362381 1584.79477066 C1438.30728878 1584.79904655 1445.60092173 1584.81035876 1452.89456888 1584.8269946 C1457.08789196 1584.83631217 1461.2811553 1584.842547 1465.47448933 1584.83993131 C1509.53989015 1584.81776566 1509.53989015 1584.81776566 1530.42982113 1589.19130117 C1531.9561517 1589.50720205 1531.9561517 1589.50720205 1533.51331723 1589.82948476 C1566.62132045 1597.07643078 1597.93998621 1611.6415894 1624.17982113 1633.12880117 C1624.69286801 1633.54033437 1625.20591488 1633.95186757 1625.73450863 1634.37587148 C1639.62932699 1645.53147502 1652.36108931 1658.05777784 1662.92835629 1672.42860585 C1664.17714554 1674.1251662 1665.44869217 1675.80276092 1666.72278988 1677.48036367 C1683.43202618 1699.81203218 1694.6311395 1725.89852997 1701.92982113 1752.69130117 C1702.11633236 1753.360808 1702.30284359 1754.03031484 1702.49500668 1754.72010976 C1706.63396618 1770.69289111 1707.69079577 1786.5865221 1707.62586606 1803.03334218 C1707.61737494 1806.29562702 1707.64621607 1809.55614152 1707.67786801 1812.81825429 C1707.87200046 1870.7924217 1682.3620225 1922.55245635 1643.17982113 1964.12880117 C1642.4901727 1964.86098867 1641.80052426 1965.59317617 1641.08997738 1966.34755117 C1606.94929172 2001.53549712 1553.06529627 2026.78318421 1503.92521083 2028.22424442 C1499.97114044 2028.26349661 1496.01765943 2028.27192278 1492.06345761 2028.26924306 C1490.53001138 2028.27183037 1488.99656582 2028.27484454 1487.46312118 2028.27824646 C1483.26439588 2028.28627954 1479.06568771 2028.288104 1474.86695564 2028.28884393 C1470.33038056 2028.29070143 1465.79381422 2028.29825321 1461.25724423 2028.30497915 C1451.33345151 2028.31854626 1441.40966283 2028.32458733 1431.48586237 2028.3289898 C1425.26765336 2028.33176027 1419.04944588 2028.33599957 1412.83123791 2028.34049398 C1395.56101656 2028.35269452 1378.29079644 2028.36298579 1361.02057087 2028.36636907 C1359.91545333 2028.36658863 1358.81033579 2028.3668082 1357.67172984 2028.36703442 C1356.56413899 2028.3672527 1355.45654814 2028.36747098 1354.31539392 2028.36769587 C1352.07147252 2028.36813931 1349.82755113 2028.36858587 1347.58362973 2028.36903554 C1346.47059545 2028.36925697 1345.35756117 2028.3694784 1344.21079858 2028.36970654 C1326.27262632 2028.37363413 1308.33449519 2028.39102171 1290.39633875 2028.41439506 C1271.90769238 2028.43828721 1253.41906644 2028.45057929 1234.93040442 2028.45173699 C1224.57961514 2028.45264489 1214.22887969 2028.45825355 1203.87810528 2028.4765566 C1118.78871855 2028.62080403 1118.78871855 2028.62080403 1082.17982113 2025.12880117 C1081.24193171 2025.039566 1080.30404228 2024.95033084 1079.33773196 2024.85839158 C1004.68247195 2017.69526754 930.68166468 2003.34693103 859.38465512 1979.85481435 C857.176442 1979.12768848 854.96637471 1978.40643348 852.75599301 1977.68593007 C766.44082695 1949.45680399 683.8670164 1908.77764739 575.32484066 1834.70448476 C573.03190749 1833.0201471 570.72943208 1831.34941139 568.42591488 1829.67958242 C559.39080901 1823.10711371 550.5858584 1816.33291814 541.96497738 1809.22645742 C538.29801272 1806.20721334 534.55850548 1803.28895519 530.80482113 1800.37880117 C525.87277794 1796.54131701 521.18636687 1792.52332053 516.58607113 1788.28895742 C514.12180031 1786.07671429 511.57985658 1784.00752433 508.99232113 1781.94130117 C502.93014757 1777.04161828 497.30449312 1771.7131704 491.63685238 1766.36708242 C488.45258084 1763.36795291 485.18376277 1760.48456133 481.86732113 1757.63270742 C479.48296639 1755.50776164 477.26851819 1753.22910634 475.03309262 1750.94960195 C473.33681371 1749.28304311 471.59470787 1747.75059353 469.77747738 1746.21864492 C464.21676177 1741.38196083 459.05147256 1736.1499676 453.85242856 1730.93177968 C452.12087413 1729.19486517 450.38403754 1727.46336227 448.64661801 1725.73231679 C443.4601707 1720.54865555 438.32822986 1715.37242985 433.59803402 1709.76136953 C432.03586667 1707.96308874 430.38019616 1706.29627689 428.67982113 1704.62880117 C425.66568531 1701.66144794 422.88064781 1698.55534824 420.12122738 1695.35145742 C417.89178052 1692.79903234 415.59980732 1690.30992603 413.30482113 1687.81630117 C409.25460822 1683.37629332 405.42447992 1678.80945835 401.65247738 1674.13270742 C398.7709848 1670.63212638 395.79237551 1667.22622791 392.80482113 1663.81630117 C387.19467067 1657.38790239 381.8651438 1650.78999358 376.65589535 1644.03456289 C375.06110634 1641.97552831 373.45169822 1639.92851227 371.83997738 1637.88270742 C364.23386201 1628.20710983 356.91817891 1618.36210195 349.77112973 1608.34364492 C348.22153391 1606.18685859 346.65214969 1604.04626839 345.07435238 1601.91005117 C335.56969129 1589.00133308 326.85173722 1575.60399161 318.17982113 1562.12880117 C317.63470883 1561.28736562 317.08959652 1560.44593007 316.52796566 1559.57899648 C301.96739288 1537.09136927 288.72875629 1513.78832406 276.17982113 1490.12880117 C275.31283087 1488.50629992 274.44565223 1486.88389932 273.57825863 1485.26161367 C271.07785036 1480.56824453 268.62203408 1475.85266634 266.17982113 1471.12880117 C265.73880063 1470.28075917 265.29778012 1469.43271718 264.84339535 1468.55897695 C246.58873927 1433.31636687 231.21947059 1396.41312854 217.87061703 1359.06001455 C217.1511395 1357.04861778 216.42761479 1355.03869987 215.7042352 1353.02870351 C184.47423017 1265.96008863 166.5636729 1174.87258881 159.17982113 1069.12880117 C159.13745327 1068.28671102 159.09508542 1067.44462087 159.05143368 1066.57701284 C158.20786622 1049.23906122 157.977634 1031.92308799 157.99232113 1014.56630117 C157.99258801 1013.9042933 157.99285489 1013.24228544 157.99312985 1012.56021672 C158.00480838 989.36783475 158.44511262 966.26247713 160.17982113 943.12880117 C160.2429852 942.27959096 160.30614926 941.43038076 160.37122738 940.55543691 C167.00770498 852.39845297 184.64754478 766.1105171 293.34388363 507.21815664 C295.26238564 503.98986882 297.16024704 500.75008982 299.05482113 497.50770742 C309.00843032 480.5172529 319.36993247 463.83039775 330.29832089 447.44828969 C330.83808749 446.63903854 331.37785408 445.82978738 331.93397725 444.99601346 C332.34510573 444.37983341 332.75623421 443.76365335 333.17982113 443.12880117 C332.48605277 443.12956061 331.79228442 443.13032005 331.07749277 443.1311025 C289.8749374 443.17594832 248.67238488 443.21021946 207.46980998 443.23093183 C202.51238852 443.23343296 197.55496712 443.23602164 192.59754574 443.23866445 C191.1172693 443.23945138 191.1172693 443.23945138 189.60708828 443.24025421 C173.66969779 443.248935 157.73232186 443.26469203 141.79493999 443.28310676 C125.41756011 443.30187076 109.04018781 443.31293157 92.66279763 443.31697816 C82.57325163 443.31970979 72.48374681 443.32830825 62.39421351 443.3446341 C55.45679857 443.3552814 48.51940463 443.35838445 41.58198213 443.35580392 C37.59135453 443.35453456 33.60079842 443.35635155 29.61018384 443.36721212 C8.32737009 443.42224396 -13.14148424 443.44904706 -34.07017887 439.06630117 C-35.08918277 438.85497548 -36.10818668 438.6436498 -37.15806949 438.42592031 C-77.73692213 429.53154459 -113.96137986 409.7872932 -143.82017887 381.12880117 C-144.38237125 380.59384023 -144.94456363 380.05887929 -145.52379215 379.50770742 C-154.11930913 371.28941571 -161.76912024 362.70345982 -168.82017887 353.12880117 C-169.45310855 352.27930898 -170.08603824 351.42981679 -170.73814762 350.55458242 C-203.9646596 304.55449146 -218.45491753 245.53454997 -210.30064762 189.34779531 C-202.50272464 141.52082192 -181.12694957 100.08590735 -147.82017887 65.12880117 C-147.02353824 64.27930898 -146.22689762 63.42981679 -145.40611637 62.55458242 C-138.75918104 55.65865766 -131.45903865 49.86474214 -123.82017887 44.12880117 C-123.27409976 43.71130605 -122.72802066 43.29381093 -122.16539371 42.86366445 C-92.50306325 20.25140709 -56.72097092 6.09483142 -19.82017887 1.12880117 C-19.2113096 1.0467075 -18.60244034 0.96461383 -17.9751205 0.88003248 C-11.96511822 0.13601856 -6.05117336 -0.01263848 0 0 Z " fill="#012369" transform="translate(281.8201788663864,58.87119883298874)"/>
<path d="M0 0 C2.40542882 1.34500738 4.20888666 1.99738965 6.81640625 2.73046875 C13.4455036 4.82550066 18.83336925 9.02236716 24.4609375 12.98828125 C25.57286732 13.76077474 26.68549407 14.53226607 27.79882812 15.30273438 C29.84945837 16.72468619 31.89697833 18.15114272 33.94018555 19.58374023 C35.95809769 20.98471551 38.00426032 22.34536654 40.06811523 23.67773438 C42.91098417 25.64601255 43.33814119 26.57110611 44.7734375 29.55078125 C47.307046 31.77358402 47.307046 31.77358402 50.3984375 33.98828125 C51.57570957 34.86910468 52.75141833 35.75202039 53.92578125 36.63671875 C54.54952637 37.10561523 55.17327148 37.57451172 55.81591797 38.05761719 C64.71489248 44.84561022 73.36082376 51.99845742 81.60546875 59.56640625 C83.69212544 61.47635508 85.81732704 63.33023472 87.9609375 65.17578125 C91.08390729 67.89195136 94.00157397 70.75193822 96.89624023 73.70800781 C98.71525147 75.49366222 100.59629078 77.14382607 102.5390625 78.79296875 C106.63760499 82.35847469 110.34797368 86.180969 114.0234375 90.17578125 C114.66168457 90.86365723 115.29993164 91.5515332 115.95751953 92.26025391 C117.26213965 93.66734977 118.56505188 95.07603116 119.86621094 96.48632812 C121.69605885 98.46702371 123.53403094 100.43979977 125.375 102.41015625 C126.46636156 103.58183034 127.55751871 104.75369489 128.6484375 105.92578125 C129.15407227 106.4667041 129.65970703 107.00762695 130.18066406 107.56494141 C133.65865932 111.3212249 133.65865932 111.3212249 134.7734375 113.55078125 C135.51078125 113.96457031 136.248125 114.37835937 137.0078125 114.8046875 C140.32179414 116.89698947 142.5740906 119.48772097 145.0234375 122.48828125 C145.49507324 123.05732178 145.96670898 123.6263623 146.45263672 124.21264648 C159.37500705 139.92828028 159.37500705 139.92828028 160.25402832 143.50785828 C161.13348678 146.96691516 163.37336395 149.72047514 165.3671875 152.6328125 C165.83274048 153.32404709 166.29829346 154.01528168 166.7779541 154.72746277 C168.27099669 156.94314357 169.77152421 159.1536058 171.2734375 161.36328125 C180.37441006 174.778488 189.02935816 188.33213989 196.8359375 202.55078125 C197.4551709 203.67359497 197.4551709 203.67359497 198.08691406 204.8190918 C199.32007124 207.06065638 200.54768423 209.30516099 201.7734375 211.55078125 C202.14388184 212.22705566 202.51432617 212.90333008 202.89599609 213.60009766 C207.54406425 222.10574619 211.82927517 230.69135601 215.7734375 239.55078125 C216.4334375 239.55078125 217.0934375 239.55078125 217.7734375 239.55078125 C219.58116052 243.66892411 221.36660257 247.7963788 223.1484375 251.92578125 C223.65632813 253.08207031 224.16421875 254.23835938 224.6875 255.4296875 C227.17789601 261.22968873 229.14430306 266.59359455 230.18603516 272.81005859 C230.9346482 276.30296386 232.06697757 279.62932227 233.2421875 282.99609375 C233.47993896 283.67801285 233.71769043 284.35993195 233.96264648 285.06251526 C234.46835965 286.50912598 234.9747073 287.95551501 235.48162842 289.40170288 C252.846891 339.27479591 264.66262159 394.49613026 263.7734375 447.55078125 C264.4334375 447.55078125 265.0934375 447.55078125 265.7734375 447.55078125 C265.7734375 458.77078125 265.7734375 469.99078125 265.7734375 481.55078125 C265.1134375 481.55078125 264.4534375 481.55078125 263.7734375 481.55078125 C263.78793945 482.22560547 263.80244141 482.90042969 263.81738281 483.59570312 C263.92109583 492.46761086 263.30236324 501.22347751 262.5234375 510.05078125 C262.45685944 510.81433929 262.39028137 511.57789734 262.32168579 512.36459351 C258.43252749 556.49614273 249.33905824 599.60987727 234.81005859 641.44775391 C231.80540048 649.96024415 231.80540048 649.96024415 229.7734375 658.7421875 C228.64551497 665.26389343 225.7951796 671.15007651 223.1484375 677.17578125 C222.6328125 678.37074219 222.1171875 679.56570313 221.5859375 680.796875 C220.32370568 683.71870793 219.05275173 686.63639741 217.7734375 689.55078125 C217.1134375 689.55078125 216.4534375 689.55078125 215.7734375 689.55078125 C215.53334961 690.07172363 215.29326172 690.59266602 215.04589844 691.12939453 C201.76969535 719.79874937 186.06289884 746.81358258 168.05078125 772.765625 C162.79804625 780.0328551 162.79804625 780.0328551 158.8828125 788.02734375 C157.04265946 792.21304398 153.95991414 795.45539977 151.0234375 798.92578125 C150.415 799.65539063 149.8065625 800.385 149.1796875 801.13671875 C147.97065235 802.58342747 146.75652728 804.02589914 145.53710938 805.46386719 C144.37599019 806.83779394 143.22587901 808.22111212 142.08789062 809.61425781 C141.56646484 810.24557617 141.04503906 810.87689453 140.5078125 811.52734375 C140.05116211 812.08760254 139.59451172 812.64786133 139.12402344 813.22509766 C137.7734375 814.55078125 137.7734375 814.55078125 134.7734375 815.55078125 C133.19326983 817.07148098 133.19326983 817.07148098 131.6484375 818.98828125 C131.02582031 819.72046875 130.40320312 820.45265625 129.76171875 821.20703125 C128.77751953 822.3671875 128.77751953 822.3671875 127.7734375 823.55078125 C116.07345462 836.86705042 104.00564868 849.74764888 90.7734375 861.55078125 C89.13483932 863.06861425 87.50467141 864.59519933 85.87426758 866.12182617 C79.71629748 871.87486884 73.36816021 877.29942798 66.7734375 882.55078125 C65.53867974 883.54249237 64.30432902 884.53471044 63.0703125 885.52734375 C56.84981224 890.52333609 50.62850934 895.49785513 44.21484375 900.24609375 C43.73917969 900.67664062 43.26351562 901.1071875 42.7734375 901.55078125 C42.7734375 902.21078125 42.7734375 902.87078125 42.7734375 903.55078125 C40.49527577 905.27684137 38.21556458 906.87696257 35.8359375 908.453125 C34.76569336 909.17067711 34.76569336 909.17067711 33.67382812 909.90272522 C32.15611252 910.91736466 30.63601308 911.92844577 29.11376953 912.9362793 C26.80397293 914.46803154 24.50517753 916.01529384 22.20703125 917.56445312 C20.72981035 918.54914341 19.25196424 919.53289654 17.7734375 920.515625 C16.75262085 921.20482277 16.75262085 921.20482277 15.71118164 921.90794373 C11.8031431 924.47612678 8.05384556 926.32765842 3.63995361 927.86305237 C0.88251571 928.87904664 -1.59317144 930.28185219 -4.140625 931.73828125 C-5.21948975 932.34889404 -6.29835449 932.95950684 -7.40991211 933.58862305 C-8.54565674 934.23613525 -9.68140137 934.88364746 -10.8515625 935.55078125 C-80.82847508 974.94539372 -157.36951849 997.05883192 -237.2265625 1003.55078125 C-238.10006348 1003.62280762 -238.97356445 1003.69483398 -239.87353516 1003.76904297 C-318.29592783 1009.85367809 -398.83578347 996.5610693 -551.32421875 929.37109375 C-553.87975207 927.76829627 -555.72079452 927.00643535 -558.5546875 926.15234375 C-563.64799857 924.56894202 -567.63142642 921.96546235 -571.9765625 918.92578125 C-573.13575195 918.13107422 -573.13575195 918.13107422 -574.31835938 917.3203125 C-575.88117829 916.24740952 -577.44112885 915.1703153 -578.99804688 914.08886719 C-581.05435045 912.66963926 -583.12676112 911.28018072 -585.2109375 909.90234375 C-586.38299525 909.11876287 -587.55488221 908.33492643 -588.7265625 907.55078125 C-589.7475 906.87015625 -590.7684375 906.18953125 -591.8203125 905.48828125 C-594.2265625 903.55078125 -594.2265625 903.55078125 -595.17675781 901.59179688 C-596.34379003 899.32286912 -597.36694563 898.42226517 -599.4296875 896.95703125 C-600.07357422 896.48998779 -600.71746094 896.02294434 -601.38085938 895.54174805 C-602.41823242 894.80371948 -602.41823242 894.80371948 -603.4765625 894.05078125 C-611.4136267 888.25869967 -618.85277604 882.03633906 -626.2265625 875.55078125 C-626.98453125 874.89335938 -627.7425 874.2359375 -628.5234375 873.55859375 C-633.82118877 868.96014565 -639.03942576 864.27339828 -644.2265625 859.55078125 C-645.04471436 858.81045654 -645.04471436 858.81045654 -645.87939453 858.05517578 C-656.1950353 848.69686316 -665.80139138 838.80020688 -675.2265625 828.55078125 C-676.29164219 827.39971693 -677.35674446 826.24867351 -678.421875 825.09765625 C-685.0600224 817.88386145 -685.0600224 817.88386145 -686.2265625 815.55078125 C-686.95230469 815.14859375 -687.67804688 814.74640625 -688.42578125 814.33203125 C-692.00140034 812.05799735 -694.34636754 809.28688807 -697.0390625 806.05078125 C-697.56024658 805.43219238 -698.08143066 804.81360352 -698.6184082 804.17626953 C-710.75524024 789.63301277 -710.75524024 789.63301277 -711.65600586 785.65356445 C-712.31673972 783.21843362 -713.330802 781.66221442 -714.78125 779.6015625 C-715.30799316 778.84488281 -715.83473633 778.08820312 -716.37744141 777.30859375 C-716.94640137 776.50164063 -717.51536133 775.6946875 -718.1015625 774.86328125 C-719.29582561 773.14170251 -720.48850652 771.41902524 -721.6796875 769.6953125 C-722.27845703 768.82986816 -722.87722656 767.96442383 -723.49414062 767.07275391 C-734.94476725 750.40350742 -744.90973645 732.94546719 -754.5390625 715.17578125 C-755.11374268 714.11883057 -755.68842285 713.06187988 -756.28051758 711.97290039 C-760.23259781 704.62153851 -763.80861214 697.16429859 -767.2265625 689.55078125 C-767.8865625 689.55078125 -768.5465625 689.55078125 -769.2265625 689.55078125 C-771.03428552 685.43263839 -772.81972757 681.3051837 -774.6015625 677.17578125 C-775.10945312 676.01949219 -775.61734375 674.86320312 -776.140625 673.671875 C-778.6254252 667.88490612 -780.59162308 662.53339773 -781.63037109 656.33105469 C-782.88618579 650.47470016 -785.08593092 644.83840361 -787.04873657 639.18652344 C-804.32172155 589.201432 -815.80356789 534.5978782 -815.2265625 481.55078125 C-815.8865625 481.55078125 -816.5465625 481.55078125 -817.2265625 481.55078125 C-817.2265625 470.33078125 -817.2265625 459.11078125 -817.2265625 447.55078125 C-816.5665625 447.55078125 -815.9065625 447.55078125 -815.2265625 447.55078125 C-815.24033936 446.80086914 -815.25411621 446.05095703 -815.26831055 445.27832031 C-815.35970947 436.23738574 -814.82712018 427.30013297 -814.0390625 418.30078125 C-813.97343109 417.54545105 -813.90779968 416.79012085 -813.84017944 416.01190186 C-809.69814611 369.13492444 -799.16944635 323.56509092 -783.73828125 279.14331055 C-782.36310175 275.16004462 -781.12357641 271.29342479 -780.328125 267.15234375 C-779.10619052 261.26608472 -776.56011652 255.94599572 -774.1015625 250.48828125 C-773.63363281 249.43189453 -773.16570313 248.37550781 -772.68359375 247.28710938 C-771.53857026 244.70496457 -770.38612721 242.12642044 -769.2265625 239.55078125 C-768.5665625 239.55078125 -767.9065625 239.55078125 -767.2265625 239.55078125 C-766.82884644 238.68634399 -766.82884644 238.68634399 -766.4230957 237.80444336 C-759.82444256 223.54274746 -752.65893685 209.75749096 -744.75488281 196.17675781 C-743.33761332 193.74158997 -741.93286888 191.29966597 -740.53125 188.85546875 C-734.19408021 177.86679429 -727.34631466 167.29249715 -719.96484375 156.9765625 C-719.41618652 156.20828125 -718.8675293 155.44 -718.30224609 154.6484375 C-717.2320656 153.15560749 -716.15581197 151.66710747 -715.07275391 150.18359375 C-714.58597168 149.50683594 -714.09918945 148.83007812 -713.59765625 148.1328125 C-712.9468811 147.23912964 -712.9468811 147.23912964 -712.28295898 146.32739258 C-711.14119116 144.40720666 -710.73672625 142.71304664 -710.2265625 140.55078125 C-705.81501039 133.83085885 -700.54522891 127.60662281 -695.4140625 121.42578125 C-694.73077881 120.5915564 -694.73077881 120.5915564 -694.03369141 119.74047852 C-691.60244433 116.85868565 -689.57141927 115.18258385 -686.2265625 113.55078125 C-684.17443043 111.30089157 -684.17443043 111.30089157 -682.1640625 108.61328125 C-678.01131992 103.38643556 -673.56745611 98.78816178 -668.79296875 94.11328125 C-666.01159354 91.33613949 -663.4543506 88.43111737 -660.8984375 85.44921875 C-656.19002333 80.10274846 -651.01196112 75.29126592 -645.61328125 70.65625 C-643.10665379 68.44500253 -640.6693792 66.17141562 -638.2331543 63.88330078 C-631.7728285 57.81921292 -625.16967721 52.06251756 -618.2265625 46.55078125 C-616.99294045 45.56057957 -615.7599038 44.56964829 -614.52734375 43.578125 C-608.30592612 38.58032535 -602.08311771 33.60480555 -595.66796875 28.85546875 C-595.19230469 28.42492187 -594.71664063 27.994375 -594.2265625 27.55078125 C-594.2265625 26.89078125 -594.2265625 26.23078125 -594.2265625 25.55078125 C-591.94880551 23.81257369 -589.66944624 22.20093775 -587.2890625 20.61328125 C-586.57556641 20.13181641 -585.86207031 19.65035156 -585.12695312 19.15429688 C-582.83211154 17.61173117 -580.52955503 16.08114453 -578.2265625 14.55078125 C-577.46843262 14.04144043 -576.71030273 13.53209961 -575.92919922 13.00732422 C-573.70132818 11.51200901 -571.46556802 10.02936036 -569.2265625 8.55078125 C-568.54601807 8.09453369 -567.86547363 7.63828613 -567.16430664 7.16821289 C-563.37027492 4.69303902 -559.8016462 2.97125819 -555.5 1.47216797 C-550.33078992 -0.62282761 -545.56232936 -3.62766582 -540.7265625 -6.38671875 C-473.44322295 -44.26197789 -398.66706747 -67.53646977 -314.2265625 -74.44921875 C-313.48245117 -74.50561523 -312.73833984 -74.56201172 -311.97167969 -74.62011719 C-230.36999099 -80.68195692 -146.68466437 -66.67016488 0 0 Z " fill="#FBFBFC" transform="translate(1730.2265625,608.44921875)"/>
<path d="M0 0 C6.26644081 0.01334691 12.53288581 0.00910148 18.7993365 0.00695447 C31.57937269 0.00305618 44.35936158 0.01286891 57.13938403 0.03100669 C69.7594604 0.04887081 82.37951698 0.06032708 94.99960589 0.06356514 C95.78970919 0.06377135 96.57981248 0.06397757 97.3938583 0.06419004 C101.40778771 0.0652053 105.42171713 0.06610935 109.43564658 0.06697067 C137.7304032 0.07324111 166.0251342 0.09336624 194.31987643 0.1218785 C221.77625527 0.14951366 249.23262706 0.17072416 276.68901706 0.18340194 C277.96263088 0.18399381 277.96263088 0.18399381 279.26197428 0.18459763 C287.79017495 0.18855382 296.31837568 0.19238117 304.84657646 0.19611421 C322.21335838 0.20371909 339.58013985 0.21218284 356.94692111 0.22116745 C357.7450946 0.22157932 358.54326808 0.22199118 359.36562864 0.22241554 C412.49931445 0.24993164 465.63298562 0.29751996 518.76665378 0.34819686 C518.80890637 5.5093453 518.83924516 10.67038928 518.85935092 15.8316716 C518.8677478 17.58122154 518.87919438 19.33075998 518.89395785 21.08026779 C519.01291305 35.55729651 517.95170199 49.17381633 514.76665378 63.34819686 C514.58473483 64.1822203 514.40281589 65.01624374 514.21538424 65.87554061 C503.91994857 111.87838099 477.61435663 156.55488426 440.55571628 186.10991561 C438.77467119 187.53924171 437.01645559 188.99781643 435.29009128 190.49272811 C426.78211511 197.80221228 417.376072 203.60428299 407.76665378 209.34819686 C407.13275729 209.72863143 406.49886081 210.109066 405.84575534 210.5010289 C371.48152647 230.79328731 331.35923803 238.51836607 291.88613009 238.48622787 C290.43952415 238.48865312 288.9929189 238.49151758 287.5463146 238.4947772 C283.61128688 238.50244895 279.67627668 238.50414522 275.74124241 238.50482833 C271.48035945 238.50668313 267.21948639 238.51429893 262.95860934 238.52130783 C255.58154942 238.53279272 248.20449173 238.5410589 240.82742572 238.54742706 C229.13028368 238.55781395 217.43316947 238.57839606 205.73604465 238.60054672 C201.72145543 238.60802554 197.70686609 238.61543954 193.69227672 238.62283409 C192.18741831 238.62560994 192.18741831 238.62560994 190.65215873 238.62844186 C179.24908297 238.64934015 167.84600413 238.66817822 156.44292331 238.68608749 C155.40160588 238.68772567 154.36028844 238.68936385 153.28741594 238.69105168 C136.46732954 238.71725515 119.64724097 238.73594558 102.82714288 238.75267939 C85.4921103 238.77020148 68.15711985 238.7991558 50.82212102 238.83756876 C40.16970345 238.86075966 29.51735464 238.87494422 18.86491163 238.8768964 C11.53504576 238.87903281 4.20524776 238.89218274 -3.12458749 238.91337572 C-7.32958757 238.92520539 -11.53445323 238.93269407 -15.73946881 238.92666328 C-32.7016532 238.90564146 -49.52335634 239.30320258 -66.43167996 240.73360336 C-67.15889141 240.79501748 -67.88610286 240.85643159 -68.63535102 240.91970675 C-159.88433716 248.80189295 -249.48083896 279.8410298 -353.23334622 348.34819686 C-353.85386868 348.80130233 -354.47439115 349.2544078 -355.11371732 349.72124374 C-368.5421116 359.55726427 -381.61041607 369.9089398 -393.86225247 381.18804061 C-395.89159985 383.03685296 -397.94658905 384.84449244 -400.01850247 386.64507186 C-404.12897761 390.23330863 -408.13372088 393.92305691 -412.10834622 397.66069686 C-412.80307034 398.31368759 -413.49779447 398.96667831 -414.21357083 399.63945663 C-421.52074321 406.53072536 -428.73172935 413.45597523 -435.26459622 421.09819686 C-437.31104115 423.43699107 -439.41714339 425.70872515 -441.53852201 427.97930038 C-447.37746259 434.23323254 -452.89512569 440.6575077 -458.23334622 447.34819686 C-459.15425807 448.47788895 -460.07618733 449.60675218 -460.99897122 450.73491561 C-483.63482423 478.52654602 -502.99652915 508.84558734 -520.11469388 540.29888046 C-521.14817322 542.19216408 -522.19480104 544.07747261 -523.24506497 545.96147811 C-560.60238295 613.61973179 -581.50282016 693.41748131 -586.23334622 770.34819686 C-586.29529675 771.33558349 -586.29529675 771.33558349 -586.35849881 772.34291732 C-587.10188714 784.41166231 -587.43684708 796.44482447 -587.42084622 808.53569686 C-587.41993985 809.82421051 -587.41993985 809.82421051 -587.41901517 811.13875473 C-587.24637596 902.65332455 -565.0050607 993.90998594 -456.23334622 1173.34819686 C-455.75800443 1173.92263534 -455.28266263 1174.49707382 -454.79291654 1175.08891952 C-448.34024791 1182.88043786 -441.61206799 1190.37048734 -434.70649076 1197.76177108 C-433.26560954 1199.31345258 -431.83871961 1200.87666656 -430.41693997 1202.44585311 C-422.49849233 1211.18403034 -414.4320312 1219.75353605 -405.44818997 1227.41460311 C-403.12023671 1229.44694327 -400.86218861 1231.54162526 -398.60443997 1233.65117538 C-392.35008813 1239.49104944 -385.92569273 1245.01046741 -379.23334622 1250.34819686 C-378.11543429 1251.25746317 -376.99828562 1252.16766846 -375.88178372 1253.07866561 C-348.59371774 1275.25695484 -319.23055962 1294.74523601 -288.23334622 1311.34819686 C-287.36516263 1311.81580429 -286.49697904 1312.28341171 -285.60248685 1312.76518905 C-224.42362055 1345.60607375 -157.72924765 1366.82506314 -88.85834622 1375.59819686 C-87.08040677 1375.82515243 -87.08040677 1375.82515243 -85.26654935 1376.05669296 C-61.75204189 1378.86434799 -38.36009936 1379.65034128 -14.70912278 1379.635553 C-10.44255626 1379.63512619 -6.17601648 1379.64629967 -1.90946317 1379.65601242 C5.45595766 1379.6713357 12.82135964 1379.67984805 20.186795 1379.68372238 C30.86049744 1379.689522 41.53414977 1379.70819041 52.20782981 1379.73016292 C69.5660526 1379.76573644 86.92427825 1379.79411157 104.28252292 1379.81645858 C105.83494917 1379.81846107 105.83494917 1379.81846107 107.41873757 1379.82050401 C115.81515825 1379.83127979 124.21157936 1379.841702 132.60800052 1379.85210407 C139.9526332 1379.86121705 147.29726568 1379.87046957 154.64189792 1379.87993515 C155.67647227 1379.88126589 156.71104663 1379.88259663 157.77697172 1379.8839677 C175.08180039 1379.90646591 192.38660748 1379.93668663 209.69141394 1379.97232759 C220.32776577 1379.99386508 230.96408405 1380.00857722 241.60045645 1380.01416636 C248.89412142 1380.01844224 256.18775437 1380.02975446 263.48140153 1380.0463903 C267.6747246 1380.05570787 271.86798795 1380.06194269 276.06132197 1380.05932701 C320.12672279 1380.03716136 320.12672279 1380.03716136 341.01665378 1384.41069686 C342.54298434 1384.72659774 342.54298434 1384.72659774 344.10014987 1385.04888046 C377.20815309 1392.29582648 408.52681885 1406.8609851 434.76665378 1428.34819686 C435.27970065 1428.75973007 435.79274753 1429.17126327 436.32134128 1429.59526718 C450.21615963 1440.75087072 462.94792195 1453.27717354 473.51518893 1467.64800155 C474.76397818 1469.3445619 476.03552481 1471.02215661 477.30962253 1472.69975936 C494.01885882 1495.03142787 505.21797214 1521.11792566 512.51665378 1547.91069686 C512.70316501 1548.5802037 512.88967624 1549.24971054 513.08183932 1549.93950546 C517.2660493 1566.08691427 518.18340048 1581.94198388 517.95415378 1598.53569686 C517.93905141 1600.4725352 517.925373 1602.40938517 517.91313815 1604.34624374 C517.88063724 1609.01385823 517.82917521 1613.68089199 517.76665378 1618.34819686 C464.25044045 1618.39965233 410.73422489 1618.44740073 357.2179935 1618.47522628 C356.42347514 1618.47564045 355.62895679 1618.47605463 354.81036212 1618.47648135 C337.53526308 1618.48546414 320.26016377 1618.4937741 302.98506408 1618.50139285 C294.51097478 1618.50513423 286.03688555 1618.50902398 277.56279635 1618.51299179 C276.71960986 1618.51338406 275.87642337 1618.51377634 275.00768577 1618.5141805 C247.77318801 1618.5269202 220.53870916 1618.54942057 193.30422282 1618.57708853 C165.27172423 1618.60551486 137.23923606 1618.62388278 109.20672331 1618.62994183 C105.22965204 1618.63080605 101.25258082 1618.63178296 97.2755096 1618.63282859 C96.10161644 1618.633132 96.10161644 1618.633132 94.90400827 1618.63344153 C82.40476492 1618.63695993 69.90555422 1618.65080069 57.40632408 1618.66869297 C44.78080097 1618.68653876 32.15530958 1618.69305557 19.52977435 1618.688701 C12.71318901 1618.68664729 5.89670318 1618.68947465 -0.91986585 1618.70581329 C-93.74655442 1618.91686604 -184.04117365 1606.95659916 -420.23334622 1511.34819686 C-422.04322014 1510.30258601 -423.85311599 1509.25701312 -425.66303372 1508.21147811 C-445.04214088 1496.94972951 -464.02369659 1484.99153408 -482.1767056 1471.83550155 C-484.37074112 1470.24883673 -486.57472685 1468.67670168 -488.78022122 1467.10600936 C-498.13210564 1460.42777824 -507.28419667 1453.55648586 -516.23334622 1446.34819686 C-516.87513822 1445.83257186 -517.51693021 1445.31694686 -518.17817044 1444.78569686 C-526.76197745 1437.88047334 -535.2534971 1430.87518373 -543.62690091 1423.71636093 C-545.26289465 1422.32303131 -546.9074699 1420.94039717 -548.55365872 1419.55913436 C-554.88909601 1414.220108 -561.05521084 1408.72988511 -567.08490872 1403.04741561 C-567.81712644 1402.35752548 -568.54934415 1401.66763534 -569.30375028 1400.95683944 C-576.88212286 1393.78324252 -584.28997357 1386.44333439 -591.65766263 1379.05425155 C-593.88876194 1376.81770691 -596.12527569 1374.58667386 -598.36225247 1372.35600936 C-599.81179255 1370.90580964 -601.26102301 1369.45530036 -602.70990872 1368.00444686 C-603.3641583 1367.35222152 -604.01840787 1366.69999618 -604.69248319 1366.02800643 C-608.51618868 1362.18502568 -612.1584748 1358.23241744 -615.69574857 1354.12390792 C-617.9378024 1351.53464814 -620.27384677 1349.04195379 -622.60834622 1346.53569686 C-626.89765325 1341.89262498 -630.96013241 1337.11378069 -634.92475247 1332.18804061 C-637.00417965 1329.63009889 -639.12373179 1327.1169518 -641.26752591 1324.61333358 C-646.64909708 1318.32359887 -651.79669272 1311.88448211 -656.78022122 1305.27397811 C-658.41533932 1303.10700708 -660.05904892 1300.94666125 -661.70209622 1298.78569686 C-719.58152055 1222.41153768 -762.99995528 1136.99531237 -820.78022122 903.07988632 C-821.08728651 900.55106472 -821.40534022 898.02355756 -821.73334622 895.49736679 C-823.31256321 883.12948916 -824.1380407 870.72986962 -824.85834622 858.28569686 C-824.95640058 856.60268478 -824.95640058 856.60268478 -825.05643582 854.88567245 C-826.96672677 821.32297516 -827.31747679 787.6693671 -824.54535794 754.14556015 C-824.2767663 750.87664432 -824.03059414 747.60693844 -823.7938168 744.3355931 C-822.09849946 721.17182045 -818.91085087 698.27395663 -815.23334622 675.34819686 C-815.06835629 674.31795394 -815.06835629 674.31795394 -814.90003324 673.26689804 C-802.08893606 593.71967153 -775.64022767 517.53400462 -716.13153958 401.56035507 C-714.73888846 399.20368487 -713.3605583 396.84135093 -711.99335599 394.47002304 C-705.84967028 383.85048706 -699.26272435 373.59205346 -692.42084622 363.41069686 C-691.89521085 362.6254866 -691.36957547 361.84027633 -690.82801175 361.03127182 C-683.19703616 349.63321398 -675.50139527 338.2975263 -667.23334622 327.34819686 C-666.79957669 326.77246933 -666.36580716 326.19674179 -665.9188931 325.60356796 C-663.06006407 321.82305762 -660.1539021 318.08130803 -657.23334622 314.34819686 C-656.34115207 313.1973622 -655.44923259 312.04631454 -654.55756497 310.89507186 C-649.57654374 304.48572157 -644.48616126 298.19349793 -639.2091763 292.02519882 C-636.40227089 288.74357783 -633.67523895 285.41316527 -630.98334622 282.03569686 C-626.48962338 276.50371315 -621.63475345 271.34124847 -616.72455716 266.18096054 C-616.11644193 265.54134384 -615.50832669 264.90172714 -614.88178372 264.24272811 C-614.34730618 263.68432235 -613.81282865 263.12591659 -613.26215482 262.55058944 C-611.47725985 260.61297964 -609.75617565 258.63911745 -608.03632474 256.6440953 C-604.11610556 252.15075811 -599.95818829 247.92880536 -595.73725247 243.71929061 C-594.94487683 242.92595825 -594.15250119 242.13262588 -593.33611417 241.31525314 C-591.6708434 239.64930606 -590.00432594 237.9846043 -588.33661771 236.32109725 C-585.803 233.79283552 -583.27476455 231.25928026 -580.7470181 228.72514999 C-579.1190834 227.09787617 -577.49083848 225.47091261 -575.86225247 223.84429061 C-575.1161723 223.09618621 -574.37009213 222.34808181 -573.60140347 221.57730758 C-569.51020514 217.50408118 -565.33188067 213.59385197 -560.95350003 209.83023727 C-558.55807436 207.76639994 -556.24320583 205.61858039 -553.92084622 203.47319686 C-549.43186566 199.37939478 -544.82091147 195.49350019 -540.09272122 191.68022811 C-537.59514846 189.64327328 -535.14081544 187.5646206 -532.69770169 185.46294296 C-525.10745388 178.94535689 -517.20093801 172.88804376 -509.22016263 166.85893905 C-507.4564068 165.51780842 -505.70629348 164.16209572 -503.96381497 162.79350936 C-429.52999243 104.50771764 -342.16491938 62.51646931 -121.23334622 6.34819686 C-119.9721597 6.1706285 -118.71097318 5.99306015 -117.41156888 5.81011093 C-110.03346164 4.7994113 -102.64763022 4.03774232 -95.23334622 3.34819686 C-94.57816755 3.2870099 -93.92298888 3.22582293 -93.24795631 3.16278182 C-62.15767343 0.29111407 -31.20514643 -0.07407767 0 0 Z " fill="#D1162E" transform="translate(1471.2333462238312,263.6518031358719)"/>
<path d="M0 0 C6.26644081 0.01334691 12.53288581 0.00910148 18.7993365 0.00695447 C31.57937269 0.00305618 44.35936158 0.01286891 57.13938403 0.03100669 C69.7594604 0.04887081 82.37951698 0.06032708 94.99960589 0.06356514 C95.78970919 0.06377135 96.57981248 0.06397757 97.3938583 0.06419004 C101.40778771 0.0652053 105.42171713 0.06610935 109.43564658 0.06697067 C137.7304032 0.07324111 166.0251342 0.09336624 194.31987643 0.1218785 C221.77625527 0.14951366 249.23262706 0.17072416 276.68901706 0.18340194 C277.96263088 0.18399381 277.96263088 0.18399381 279.26197428 0.18459763 C287.79017495 0.18855382 296.31837568 0.19238117 304.84657646 0.19611421 C322.21335838 0.20371909 339.58013985 0.21218284 356.94692111 0.22116745 C357.7450946 0.22157932 358.54326808 0.22199118 359.36562864 0.22241554 C412.49931445 0.24993164 465.63298562 0.29751996 518.76665378 0.34819686 C518.95814314 21.88011176 518.95814314 21.88011176 517.76665378 32.34819686 C516.02357914 32.35023166 516.02357914 32.35023166 514.24529088 32.35230756 C462.94809312 32.41231825 411.65089904 32.47478564 360.35372043 32.54952133 C359.18586857 32.55122176 359.18586857 32.55122176 357.99442375 32.55295655 C341.06754651 32.57761716 324.14066995 32.60271046 307.21379402 32.62824848 C298.9109388 32.64077258 290.60808343 32.65320123 282.30522799 32.66557968 C281.4790643 32.666813 280.65290061 32.66804633 279.80170165 32.66931702 C253.10031251 32.70913311 226.39892004 32.74266564 199.69751845 32.77288377 C172.22171753 32.80401189 144.74593262 32.84159076 117.27015158 32.88710298 C113.37516276 32.89355187 109.48017382 32.89992824 105.58518481 32.90626037 C104.81871522 32.90750868 104.05224563 32.90875698 103.26254968 32.91004311 C91.00369886 32.92982289 78.74484983 32.94295077 66.48598797 32.95349014 C54.11374371 32.96427262 41.74152589 32.98230282 29.3693022 33.0073639 C22.68525763 33.02071101 16.00125189 33.03087538 9.31719089 33.0324105 C-27.1692069 33.04366259 -63.49834466 33.5160021 -99.79584622 37.59819686 C-100.76807126 37.70490707 -101.7402963 37.81161727 -102.7419827 37.92156112 C-189.88724691 47.53242829 -275.11448397 71.757091 -360.99213529 113.7510289 C-363.88792273 115.17798291 -366.78971035 116.5915896 -369.69428372 118.00054061 C-382.50884795 124.25776928 -394.89571338 131.20302896 -407.23334622 138.34819686 C-408.02015775 138.79791854 -408.80696927 139.24764022 -409.61762357 139.71098983 C-445.06944658 160.0076004 -478.90771964 184.16627523 -510.23334622 210.34819686 C-510.74703763 210.77697128 -511.26072904 211.20574569 -511.78998685 211.64751327 C-518.29622877 217.08674695 -524.70616199 222.60925301 -530.98334622 228.31304061 C-532.98323998 230.12197229 -535.00604055 231.89711487 -537.04584622 233.66069686 C-547.78987845 243.05091582 -558.00310575 252.95594591 -568.07416654 263.05864608 C-570.12348134 265.11337194 -572.17815885 267.16262789 -574.23334622 269.21147811 C-575.56439647 270.54318852 -576.89513684 271.87520874 -578.22553372 273.20757186 C-579.1272984 274.1063002 -579.1272984 274.1063002 -580.04728055 275.02318466 C-583.7525064 278.74861179 -587.26716897 282.59685798 -590.69898343 286.57572067 C-592.78445972 288.98483609 -594.94630574 291.32030624 -597.10834622 293.66069686 C-601.20214831 298.14967743 -605.0880429 302.76063162 -608.90131497 307.48882186 C-610.93808752 309.98617111 -613.01649322 312.44032349 -615.11811185 314.88310897 C-621.60144632 322.43424585 -627.65068984 330.2837366 -633.63666654 338.23247421 C-635.13754109 340.22124773 -636.64857351 342.20179143 -638.16303372 344.18022811 C-683.05573113 403.07000403 -718.17998449 469.15001556 -744.23334622 538.34819686 C-744.48922513 539.02648544 -744.74510404 539.70477401 -745.00873685 540.40361679 C-773.46299926 616.03729077 -791.27900235 699.14215311 -792.43647122 788.28960311 C-792.44345277 789.77497529 -792.4504937 791.2603472 -792.45758939 792.74571884 C-792.47686345 797.46738198 -792.48176588 802.18899866 -792.48334622 806.91069686 C-792.48393537 807.71539287 -792.48452451 808.52008888 -792.4851315 809.34916961 C-792.49757284 833.42693449 -792.11916423 857.29618885 -789.46119046 881.25115097 C-789.22652623 883.41096711 -789.00852928 885.57190056 -788.79535794 887.73393905 C-783.42286476 942.17333397 -772.10196864 995.95176611 -755.3095181 1048.00981796 C-754.30851218 1051.11502554 -753.32463123 1054.2251935 -752.34272122 1057.33647811 C-734.01153963 1114.62384024 -706.94154758 1169.36685392 -675.23334622 1220.34819686 C-674.14975639 1222.10715346 -673.06640131 1223.86625471 -671.98334622 1225.62554061 C-657.58819031 1248.86259442 -641.3393584 1271.03811464 -624.23334622 1292.34819686 C-623.72980618 1292.9779039 -623.22626615 1293.60761093 -622.70746732 1294.25639999 C-611.84499165 1307.8219648 -600.55800597 1320.96600501 -588.73505521 1333.70293319 C-587.63329122 1334.91001944 -586.54630194 1336.13063493 -585.46796536 1337.35869491 C-578.72144179 1345.00443495 -571.54061892 1352.19274741 -564.32196927 1359.38994491 C-562.168221 1361.53831553 -560.01989396 1363.6920038 -557.8720181 1365.84624374 C-556.48106268 1367.23653855 -555.08979719 1368.62652322 -553.69818997 1370.01616561 C-553.06775281 1370.64862701 -552.43731565 1371.2810884 -551.78777432 1371.9327153 C-547.98891369 1375.71197787 -544.07604362 1379.30661655 -540.01578641 1382.80387008 C-537.42479186 1385.04873771 -534.92941285 1387.38654599 -532.42084622 1389.72319686 C-527.77777434 1394.01250389 -522.99893005 1398.07498305 -518.07318997 1402.03960311 C-515.51493544 1404.11928459 -513.00151019 1406.23914563 -510.49750638 1408.38310897 C-504.14561561 1413.81826126 -497.64512737 1419.00349884 -490.96967435 1424.03716171 C-489.16234266 1425.40180895 -487.36182809 1426.77514559 -485.56147122 1428.14897811 C-459.94343989 1447.61998564 -433.01209933 1465.12897529 -405.23334622 1481.34819686 C-403.7858096 1482.19583602 -403.7858096 1482.19583602 -402.30902982 1483.06059921 C-329.76422774 1525.28706777 -249.92782774 1554.38928605 -146.54584622 1574.72319686 C-145.53516583 1574.89667648 -145.53516583 1574.89667648 -144.50406766 1575.07366073 C-125.83668044 1578.24523009 -107.10541482 1580.63316344 -88.23871732 1582.22856796 C-85.36506931 1582.47262587 -82.49260861 1582.72822023 -79.62006497 1582.98491561 C-57.85444163 1584.88678393 -36.11881954 1585.49706345 -14.27729154 1585.50641525 C-11.96731316 1585.51099585 -9.65733559 1585.51599798 -7.34735894 1585.52137882 C-1.07371168 1585.53479907 5.19993024 1585.54233075 11.47358799 1585.54880548 C17.56674317 1585.55604922 23.65988812 1585.56785732 29.75303615 1585.5795235 C42.19799012 1585.60319676 54.64294714 1585.62245782 67.08791232 1585.63912284 C79.39351959 1585.65561597 91.6991212 1585.67412012 104.0047214 1585.69525611 C104.77249411 1585.69657372 105.54026683 1585.69789133 106.33130538 1585.69924886 C110.23111535 1585.7059518 114.13092525 1585.71269015 118.03073514 1585.71944212 C145.58674546 1585.76708794 173.14276111 1585.81030625 200.69878268 1585.85088241 C227.45366942 1585.89028913 254.20855178 1585.93172522 280.96343112 1585.97588241 C281.78947552 1585.97724494 282.61551993 1585.97860747 283.46659598 1585.98001129 C291.76277212 1585.99369775 300.0589482 1586.00742519 308.35512423 1586.02118263 C325.2523915 1586.04920222 342.14965922 1586.0769485 359.04692721 1586.10452926 C360.2120543 1586.10643156 360.2120543 1586.10643156 361.40071931 1586.10837229 C413.189357 1586.19289609 464.97800467 1586.27103058 516.76665378 1586.34819686 C517.98048987 1597.01261399 517.8619657 1607.63090007 517.76665378 1618.34819686 C464.25044045 1618.39965233 410.73422489 1618.44740073 357.2179935 1618.47522628 C356.42347514 1618.47564045 355.62895679 1618.47605463 354.81036212 1618.47648135 C337.53526308 1618.48546414 320.26016377 1618.4937741 302.98506408 1618.50139285 C294.51097478 1618.50513423 286.03688555 1618.50902398 277.56279635 1618.51299179 C276.71960986 1618.51338406 275.87642337 1618.51377634 275.00768577 1618.5141805 C247.77318801 1618.5269202 220.53870916 1618.54942057 193.30422282 1618.57708853 C165.27172423 1618.60551486 137.23923606 1618.62388278 109.20672331 1618.62994183 C105.22965204 1618.63080605 101.25258082 1618.63178296 97.2755096 1618.63282859 C96.10161644 1618.633132 96.10161644 1618.633132 94.90400827 1618.63344153 C82.40476492 1618.63695993 69.90555422 1618.65080069 57.40632408 1618.66869297 C44.78080097 1618.68653876 32.15530958 1618.69305557 19.52977435 1618.688701 C12.71318901 1618.68664729 5.89670318 1618.68947465 -0.91986585 1618.70581329 C-93.74655442 1618.91686604 -184.04117365 1606.95659916 -420.23334622 1511.34819686 C-422.04322014 1510.30258601 -423.85311599 1509.25701312 -425.66303372 1508.21147811 C-445.04214088 1496.94972951 -464.02369659 1484.99153408 -482.1767056 1471.83550155 C-484.37074112 1470.24883673 -486.57472685 1468.67670168 -488.78022122 1467.10600936 C-498.13210564 1460.42777824 -507.28419667 1453.55648586 -516.23334622 1446.34819686 C-516.87513822 1445.83257186 -517.51693021 1445.31694686 -518.17817044 1444.78569686 C-526.76197745 1437.88047334 -535.2534971 1430.87518373 -543.62690091 1423.71636093 C-545.26289465 1422.32303131 -546.9074699 1420.94039717 -548.55365872 1419.55913436 C-554.88909601 1414.220108 -561.05521084 1408.72988511 -567.08490872 1403.04741561 C-567.81712644 1402.35752548 -568.54934415 1401.66763534 -569.30375028 1400.95683944 C-576.88212286 1393.78324252 -584.28997357 1386.44333439 -591.65766263 1379.05425155 C-593.88876194 1376.81770691 -596.12527569 1374.58667386 -598.36225247 1372.35600936 C-599.81179255 1370.90580964 -601.26102301 1369.45530036 -602.70990872 1368.00444686 C-603.3641583 1367.35222152 -604.01840787 1366.69999618 -604.69248319 1366.02800643 C-608.51618868 1362.18502568 -612.1584748 1358.23241744 -615.69574857 1354.12390792 C-617.9378024 1351.53464814 -620.27384677 1349.04195379 -622.60834622 1346.53569686 C-626.89765325 1341.89262498 -630.96013241 1337.11378069 -634.92475247 1332.18804061 C-637.00417965 1329.63009889 -639.12373179 1327.1169518 -641.26752591 1324.61333358 C-646.64909708 1318.32359887 -651.79669272 1311.88448211 -656.78022122 1305.27397811 C-658.41533932 1303.10700708 -660.05904892 1300.94666125 -661.70209622 1298.78569686 C-719.58152055 1222.41153768 -762.99995528 1136.99531237 -820.78022122 903.07988632 C-821.08728651 900.55106472 -821.40534022 898.02355756 -821.73334622 895.49736679 C-823.31256321 883.12948916 -824.1380407 870.72986962 -824.85834622 858.28569686 C-824.95640058 856.60268478 -824.95640058 856.60268478 -825.05643582 854.88567245 C-826.96672677 821.32297516 -827.31747679 787.6693671 -824.54535794 754.14556015 C-824.2767663 750.87664432 -824.03059414 747.60693844 -823.7938168 744.3355931 C-822.09849946 721.17182045 -818.91085087 698.27395663 -815.23334622 675.34819686 C-815.06835629 674.31795394 -815.06835629 674.31795394 -814.90003324 673.26689804 C-802.08893606 593.71967153 -775.64022767 517.53400462 -716.13153958 401.56035507 C-714.73888846 399.20368487 -713.3605583 396.84135093 -711.99335599 394.47002304 C-705.84967028 383.85048706 -699.26272435 373.59205346 -692.42084622 363.41069686 C-691.89521085 362.6254866 -691.36957547 361.84027633 -690.82801175 361.03127182 C-683.19703616 349.63321398 -675.50139527 338.2975263 -667.23334622 327.34819686 C-666.79957669 326.77246933 -666.36580716 326.19674179 -665.9188931 325.60356796 C-663.06006407 321.82305762 -660.1539021 318.08130803 -657.23334622 314.34819686 C-656.34115207 313.1973622 -655.44923259 312.04631454 -654.55756497 310.89507186 C-649.57654374 304.48572157 -644.48616126 298.19349793 -639.2091763 292.02519882 C-636.40227089 288.74357783 -633.67523895 285.41316527 -630.98334622 282.03569686 C-626.48962338 276.50371315 -621.63475345 271.34124847 -616.72455716 266.18096054 C-616.11644193 265.54134384 -615.50832669 264.90172714 -614.88178372 264.24272811 C-614.34730618 263.68432235 -613.81282865 263.12591659 -613.26215482 262.55058944 C-611.47725985 260.61297964 -609.75617565 258.63911745 -608.03632474 256.6440953 C-604.11610556 252.15075811 -599.95818829 247.92880536 -595.73725247 243.71929061 C-594.94487683 242.92595825 -594.15250119 242.13262588 -593.33611417 241.31525314 C-591.6708434 239.64930606 -590.00432594 237.9846043 -588.33661771 236.32109725 C-585.803 233.79283552 -583.27476455 231.25928026 -580.7470181 228.72514999 C-579.1190834 227.09787617 -577.49083848 225.47091261 -575.86225247 223.84429061 C-575.1161723 223.09618621 -574.37009213 222.34808181 -573.60140347 221.57730758 C-569.51020514 217.50408118 -565.33188067 213.59385197 -560.95350003 209.83023727 C-558.55807436 207.76639994 -556.24320583 205.61858039 -553.92084622 203.47319686 C-549.43186566 199.37939478 -544.82091147 195.49350019 -540.09272122 191.68022811 C-537.59514846 189.64327328 -535.14081544 187.5646206 -532.69770169 185.46294296 C-525.10745388 178.94535689 -517.20093801 172.88804376 -509.22016263 166.85893905 C-507.4564068 165.51780842 -505.70629348 164.16209572 -503.96381497 162.79350936 C-429.52999243 104.50771764 -342.16491938 62.51646931 -121.23334622 6.34819686 C-119.9721597 6.1706285 -118.71097318 5.99306015 -117.41156888 5.81011093 C-110.03346164 4.7994113 -102.64763022 4.03774232 -95.23334622 3.34819686 C-94.57816755 3.2870099 -93.92298888 3.22582293 -93.24795631 3.16278182 C-62.15767343 0.29111407 -31.20514643 -0.07407767 0 0 Z " fill="#FDFDFD" transform="translate(1471.2333462238312,263.6518031358719)"/>
<path d="M0 0 C23.03855825 54.23978449 35 117.10805521 35 176 C-137.59 176 -310.18 176 -488 176 C-488 140.69 -488 105.38 -488 69 C-467.4265625 68.4121875 -467.4265625 68.4121875 -446.4375 67.8125 C-437.94593208 67.54669166 -429.45507761 67.27929943 -420.96484375 66.9765625 C-419.92375898 66.93944782 -418.88267422 66.90233315 -417.81004143 66.86409378 C-338.14024716 63.98124911 -257.8156853 56.94353198 -179.39874268 42.4407959 C-176.79667685 41.96263709 -174.193197 41.49280457 -171.58935547 41.02441406 C-126.8040555 32.96093986 -81.75124741 24.21477064 -38.24658203 10.69091797 C-34.59254273 9.567148 -30.92089807 8.50462641 -27.25 7.4375 C-22.98286856 6.19466085 -18.72813978 4.92385586 -14.4921875 3.578125 C-13.75967773 3.34552979 -13.02716797 3.11293457 -12.27246094 2.87329102 C-10.87597401 2.42732333 -9.48071158 1.97749655 -8.08691406 1.52319336 C-5.26035539 0.61882592 -2.99018796 0 0 0 Z " fill="#012369" transform="translate(1959,880)"/>
<path d="M0 0 C172.59 0 345.18 0 523 0 C523 13.54019293 523 13.54019293 522.484375 19.84375 C522.40110207 20.86907585 522.40110207 20.86907585 522.31614685 21.91511536 C522.13453041 24.11074971 521.94365295 26.30539615 521.75 28.5 C521.68342194 29.26355804 521.61684387 30.02711609 521.54824829 30.81381226 C517.49688021 76.78600883 507.42189623 121.21253473 492.5390625 164.82421875 C492.31228821 165.49256241 492.08551392 166.16090607 491.85186768 166.84950256 C490.75798161 170.01849143 489.59958367 173.05010034 488 176 C481.53290145 174.66624225 475.3838502 172.89994406 469.125 170.8125 C457.1912562 166.92036808 445.08889698 163.81131329 432.92236328 160.74169922 C429.27318755 159.81553415 425.63598278 158.85165557 422 157.875 C420.94748047 157.59342041 419.89496094 157.31184082 418.81054688 157.02172852 C416.87396326 156.50246901 414.93743133 155.98298536 413.00270081 155.4568634 C400.22752105 151.98357137 387.38896442 148.98830572 374.4375 146.25 C373.44641235 146.03922821 372.45532471 145.82845642 371.4342041 145.61129761 C355.09004868 142.1459516 338.69523804 139.00865714 322.25 136.0625 C321.21680634 135.87731812 320.18361267 135.69213623 319.11911011 135.50134277 C308.36975022 133.58262343 297.61196872 131.73989525 286.82104492 130.06974792 C283.12335799 129.49706559 279.43045178 128.90954421 275.74414062 128.26733398 C262.46657941 125.9568246 249.12576252 124.26033045 235.75 122.625 C234.51911652 122.47381714 233.28823303 122.32263428 232.02005005 122.16687012 C205.06281775 118.87273903 178.0604873 116.27479575 151 114 C150.07268066 113.92114563 149.14536133 113.84229126 148.18994141 113.76104736 C114.99280773 110.939291 81.76832092 109.48082443 48.47265625 108.43359375 C47.78585722 108.41198748 47.09905819 108.3903812 46.39144707 108.36812019 C30.92844861 107.8841897 15.46408238 107.44823427 0 107 C0 71.69 0 36.38 0 0 Z " fill="#012369" transform="translate(1471,1090)"/>
<path d="M0 0 C172.59 0 345.18 0 523 0 C523 35.31 523 70.62 523 107 C508.15 107.33 493.3 107.66 478 108 C467.06025322 108.40994768 456.12679789 108.83386398 445.19207764 109.34277344 C442.38228838 109.47153574 439.57218937 109.59273969 436.7620821 109.71432877 C422.10548086 110.35208765 407.49519653 111.1897666 392.88574219 112.5559082 C386.45268393 113.15601617 380.01308251 113.51392908 373.5625 113.875 C293.16593685 118.7694117 212.27371657 131.36987728 70 166 C68.77893555 166.36689941 67.55787109 166.73379883 66.29980469 167.11181641 C64.94725954 167.51853444 63.59472063 167.92527324 62.2421875 168.33203125 C61.5627005 168.53625702 60.8832135 168.74048279 60.18313599 168.95089722 C56.79919451 169.96843347 53.41632032 170.98924049 50.03564453 172.01757812 C48.80700684 172.38947266 47.57836914 172.76136719 46.3125 173.14453125 C45.21550781 173.47815674 44.11851562 173.81178223 42.98828125 174.15551758 C40.33428999 174.9055303 37.71164435 175.5054016 35 176 C11.75970013 122.35881034 0 58.24515108 0 0 Z " fill="#012369" transform="translate(915,1090)"/>
<path d="M0 0 C3.35445618 0.51698855 6.54461547 1.41187375 9.78125 2.41796875 C10.70808594 2.70349609 11.63492188 2.98902344 12.58984375 3.28320312 C13.55019531 3.58162109 14.51054688 3.88003906 15.5 4.1875 C33.55158546 9.79462805 51.74791531 14.82977573 70.0625 19.5 C70.99232697 19.73778168 71.92215393 19.97556335 72.88015747 20.22055054 C87.47047167 23.9437187 102.08544745 27.34135125 116.84277344 30.34375 C119.94743104 30.9890732 123.04019587 31.67441361 126.1328125 32.375 C161.70494755 40.37749543 197.84128525 46.35366897 234 51 C235.51433624 51.19562531 235.51433624 51.19562531 237.05926514 51.39520264 C303.28339063 59.93767647 369.45921682 65.5726806 436.20703125 67.56640625 C436.93024755 67.58801252 437.65346386 67.6096188 438.39859581 67.63187981 C454.93143685 68.12236843 471.46593273 68.55313332 488 69 C488 104.31 488 139.62 488 176 C315.41 176 142.82 176 -35 176 C-35 161.3167382 -35 161.3167382 -34.51953125 155.234375 C-34.46684082 154.56622772 -34.41415039 153.89808044 -34.35986328 153.20968628 C-34.18576031 151.05565877 -34.00101801 148.90281186 -33.8125 146.75 C-33.74686859 145.9946698 -33.68123718 145.2393396 -33.61361694 144.46112061 C-22.86985526 22.86985526 -22.86985526 22.86985526 0 0 Z " fill="#012369" transform="translate(950,880)"/>
<path d="M0 0 C0 33.99 0 67.98 0 103 C-15.84 103.33 -31.68 103.66 -48 104 C-57.34113127 104.31492403 -66.66791292 104.64611521 -76 105.125 C-77.17397339 105.18391418 -78.34794678 105.24282837 -79.55749512 105.30352783 C-128.68642954 107.83608889 -178.5569011 112.21187368 -227.0625 120.50610352 C-230.14957182 121.02514825 -233.24104248 121.50259576 -236.3359375 121.97265625 C-270.05940444 127.15436593 -303.52125919 133.76996379 -336.59570312 142.14941406 C-340.62491875 143.15614006 -344.66724655 144.09562634 -348.71459961 145.02612305 C-357.91097847 147.146104 -366.923315 149.67949475 -375.94140625 152.45703125 C-382.13266294 154.36175387 -388.36478344 156.11836098 -394.59936523 157.875 C-400.62170768 159.57987734 -406.57471944 161.4257018 -412.50390625 163.43359375 C-415.24747313 164.05615588 -416.39202673 163.96305552 -419 163 C-420.45703125 161.53564453 -420.45703125 161.53564453 -421.8125 159.6328125 C-422.32441895 158.9219751 -422.83633789 158.2111377 -423.36376953 157.47875977 C-424.17370361 156.31364868 -424.17370361 156.31364868 -425 155.125 C-425.56960449 154.31925537 -426.13920898 153.51351074 -426.72607422 152.68334961 C-445.17440695 126.32676698 -463.50699231 97.10073442 -475 67 C-469.31138601 63.74512347 -463.23699165 62.25260752 -456.9375 60.5625 C-450.54617505 58.82721043 -444.17568872 57.07555385 -437.859375 55.08203125 C-429.42328256 52.45922514 -420.87226643 50.30091049 -412.3125 48.125 C-411.02351807 47.79634949 -411.02351807 47.79634949 -409.70849609 47.46105957 C-386.08949169 41.44467091 -362.41446974 36.19532661 -338.46972656 31.6640625 C-333.80541566 30.77137142 -329.15290234 29.82494976 -324.5 28.875 C-308.73982984 25.69813908 -292.93845038 22.97293191 -276.9753418 21.03881836 C-272.58709583 20.50163721 -268.24648738 19.88663673 -263.90234375 19.0625 C-256.24716637 17.63128534 -248.53148068 16.63926929 -240.8125 15.625 C-239.99907135 15.51739349 -239.1856427 15.40978699 -238.3475647 15.29891968 C-223.52352364 13.34811849 -208.67397513 11.76259109 -193.7902832 10.34423828 C-193.00674469 10.26951294 -192.22320618 10.1947876 -191.41592407 10.11779785 C-189.85694547 9.96915923 -188.29792446 9.82096462 -186.73886108 9.67321777 C-182.47876373 9.26295729 -178.23179415 8.79552616 -173.98526001 8.26359558 C-161.63228789 6.72061912 -149.2271925 5.8815273 -136.8125 5 C-135.6033493 4.91317963 -134.39419861 4.82635925 -133.14840698 4.73690796 C-112.1107267 3.22962483 -91.07288384 1.89644242 -70 1 C-69.32201355 0.97077454 -68.6440271 0.94154907 -67.94549561 0.91143799 C-45.28524712 -0.05579679 -22.69689063 0 0 0 Z " fill="#012369" transform="translate(1438,1230)"/>
<path d="M0 0 C41.62290892 0 41.62290892 0 59.43725586 0.74462891 C62.57184416 0.8753898 65.70670987 0.9951412 68.84179688 1.11328125 C99.49240002 2.30210311 130.03266195 4.3313583 160.58003616 7.08354187 C163.16991912 7.31654116 165.75997338 7.54755492 168.35006714 7.77819824 C192.37964406 9.92217184 216.36977307 12.22739387 240.27734375 15.49316406 C243.76626929 15.9681778 247.25720264 16.42167763 250.75 16.8671875 C259.86617936 18.04515808 268.89685405 19.42516418 277.90625 21.25390625 C281.42436527 21.93435331 284.95913586 22.43089607 288.5078125 22.92578125 C296.15918315 24.0003949 303.76768232 25.27655653 311.375 26.625 C312.09154755 26.75183167 312.80809509 26.87866333 313.5463562 27.00933838 C342.42113503 32.13981321 371.06925158 38.005533 399.51660156 45.13769531 C403.51001244 46.12625203 407.51469229 47.05662189 411.52416992 47.97729492 C423.83258657 50.81496682 435.90760069 54.3623402 448 58 C450.16403026 58.64463948 452.32809294 59.28917015 454.4921875 59.93359375 C456.57834773 60.55915354 458.66429288 61.18543114 460.75 61.8125 C461.72050293 62.10237793 462.69100586 62.39225586 463.69091797 62.69091797 C464.59213379 62.96436035 465.49334961 63.23780273 466.421875 63.51953125 C467.21174805 63.75776611 468.00162109 63.99600098 468.81542969 64.24145508 C470.99074194 64.99678534 472.96695356 65.92352797 475 67 C460.23691823 101.4853383 440.76963542 134.18783311 418 164 C413.23939777 163.41280745 408.83037368 162.47800958 404.24609375 161.07421875 C403.62332047 160.88535599 403.00054718 160.69649323 402.35890198 160.50190735 C400.38359663 159.9019155 398.4104948 159.29504173 396.4375 158.6875 C393.85345057 157.89781242 391.26859302 157.11079089 388.68359375 156.32421875 C388.04491867 156.12956528 387.40624359 155.9349118 386.74821472 155.73435974 C377.15624203 152.819827 367.51642957 150.0791019 357.8125 147.5625 C356.1731173 147.13564622 354.53379604 146.70855639 352.89453125 146.28125 C352.07807129 146.06855469 351.26161133 145.85585937 350.42041016 145.63671875 C348.11413221 145.03002389 345.81243346 144.40867165 343.51171875 143.78125 C304.45265523 133.17993046 264.39919165 126.70494482 224.46884155 120.39212036 C221.99004093 119.99841822 219.51216223 119.59930283 217.03442383 119.19897461 C207.35468629 117.64091421 197.67376269 116.22904816 187.9375 115.0625 C187.25867767 114.98073517 186.57985535 114.89897034 185.88046265 114.81472778 C167.47353481 112.60917912 149.01982584 110.87160229 130.55535889 109.22784424 C128.1032896 109.00920964 125.65149091 108.78772646 123.19970703 108.56591797 C104.2357068 106.86326395 85.27360951 105.67418702 66.25 104.875 C65.34481628 104.83638855 64.43963257 104.7977771 63.50701904 104.75799561 C42.34560848 103.87408246 21.17497044 103.50416596 0 103 C0 69.01 0 35.02 0 0 Z " fill="#012369" transform="translate(1471,1230)"/>
<path d="M0 0 C2.18699052 2.28827686 3.88105582 4.8660767 5.625 7.5 C6.14425049 8.26103027 6.66350098 9.02206055 7.19848633 9.80615234 C8.81723998 12.19243331 10.41153416 14.5934718 12 17 C12.48871582 17.73508789 12.97743164 18.47017578 13.48095703 19.22753906 C23.2957848 34.02858101 32.2935722 49.24635485 40.81103516 64.82617188 C41.57884828 66.22999283 42.34917913 67.63244102 43.12255859 69.03320312 C47.97359655 77.82447192 52.21484006 86.69481515 56 96 C50.32665004 99.24050718 44.2787043 100.74525476 38 102.4375 C35.73689983 103.05830459 33.4738783 103.67939595 31.2109375 104.30078125 C30.13038086 104.59549316 29.04982422 104.89020508 27.93652344 105.19384766 C24.4897291 106.14008268 21.05695048 107.12639208 17.625 108.125 C10.73571754 110.10177824 3.80740734 111.91948834 -3.12890625 113.72265625 C-6.18565404 114.51862783 -9.23444986 115.33626809 -12.27734375 116.18359375 C-27.25098851 120.31601941 -42.45788149 123.39614164 -57.66625977 126.51959229 C-60.02091959 127.00430636 -62.37479235 127.4926935 -64.72851562 127.98193359 C-89.59677404 133.14306722 -114.53572082 137.6327185 -139.61834717 141.62042236 C-141.87122081 141.97947572 -144.12344983 142.34229264 -146.37548828 142.70654297 C-169.8332895 146.49142105 -193.38218477 149.410381 -217 152 C-218.20420593 152.13278351 -218.20420593 152.13278351 -219.43273926 152.26824951 C-261.04914071 156.83374827 -302.92209704 159.34224208 -344.7109375 161.76171875 C-345.51753815 161.80947952 -346.32413879 161.8572403 -347.15518188 161.90644836 C-371.14360977 163.24733842 -394.93246767 163 -419 163 C-419 129.01 -419 95.02 -419 60 C-408.213125 59.71125 -397.42625 59.4225 -386.3125 59.125 C-379.86441199 58.9445653 -373.41644056 58.7638811 -366.96875 58.5703125 C-365.81085213 58.53555502 -365.81085213 58.53555502 -364.62956238 58.50009537 C-342.22468218 57.82174395 -319.77023175 57.13604308 -297.49609375 54.48828125 C-293.18057478 53.98962918 -288.86058567 53.69485618 -284.52685547 53.40258789 C-258.97511185 51.65889415 -233.45407308 48.30367797 -208.13671875 44.46728516 C-204.93768437 43.99071668 -201.73648629 43.53171301 -198.53457642 43.07496643 C-177.15439351 40.01823688 -155.95236883 36.44784465 -134.78482056 32.15930176 C-130.03845359 31.19953403 -125.28343115 30.3067569 -120.51831055 29.44604492 C-107.68459887 27.1150785 -95.05655049 23.95298139 -82.39697266 20.82861328 C-79.37715355 20.09199793 -76.35371868 19.37911168 -73.32421875 18.68359375 C-56.52630094 14.82431535 -40.0524056 9.95212124 -23.625 4.75 C-22.84737305 4.50378906 -22.06974609 4.25757813 -21.26855469 4.00390625 C-18.09921536 2.99680061 -14.93579604 1.97857271 -11.78125 0.92578125 C-10.9046875 0.64089844 -10.028125 0.35601563 -9.125 0.0625 C-8.07699219 -0.29134766 -8.07699219 -0.29134766 -7.0078125 -0.65234375 C-4.15070767 -1.14705645 -2.7357833 -1.09184123 0 0 Z " fill="#012369" transform="translate(1890,753)"/>
<path d="M0 0 C1.7565918 0.25634766 1.7565918 0.25634766 4.01171875 0.7890625 C4.82688965 0.98145508 5.64206055 1.17384766 6.48193359 1.37207031 C10.27509852 2.31797105 14.04744635 3.32304867 17.8125 4.375 C18.88854492 4.66890625 18.88854492 4.66890625 19.98632812 4.96875 C24.25320293 6.15461846 28.44401552 7.479835 32.6328125 8.91796875 C39.68251279 11.29375742 46.85223315 13.12258336 54.0625 14.9375 C56.84410902 15.6431211 59.62515746 16.35094027 62.40625 17.05859375 C63.41704369 17.31502151 63.41704369 17.31502151 64.44825745 17.57662964 C67.94441076 18.46589578 71.43149805 19.37815194 74.90625 20.34765625 C89.81441603 24.4995374 105.00492143 27.45869655 120.15390015 30.5836792 C124.76736794 31.53549704 129.37759846 32.50053634 133.984375 33.484375 C152.22822976 37.37403117 170.5014463 40.71616835 189.02563477 42.96142578 C193.38515882 43.4948881 197.69121295 44.1071584 202.00390625 44.94140625 C210.17473725 46.46831502 218.43523481 47.34917443 226.6875 48.3125 C227.59902832 48.41915985 228.51055664 48.5258197 229.44970703 48.63571167 C235.31861625 49.32049776 241.18880608 49.99363128 247.05950928 50.6628418 C249.90300413 50.9888784 252.74576169 51.32070431 255.58837891 51.65429688 C309.59988799 57.96395632 363.65217319 60.40603468 418 61 C418 94.99 418 128.98 418 164 C388.24713415 164 388.24713415 164 374.125 163.625 C373.29604218 163.60354919 372.46708435 163.58209839 371.61300659 163.55999756 C338.06798824 162.67668343 304.61868723 160.80244632 271.16784668 158.16925049 C267.93793961 157.91708166 264.70724075 157.675653 261.4765625 157.43359375 C259.31766852 157.26874978 257.15881066 157.10343158 255 156.9375 C254.10716309 156.87046875 253.21432617 156.8034375 252.29443359 156.734375 C246.07454273 156.2404185 239.885954 155.53459724 233.69195557 154.79058838 C228.64754505 154.18662064 223.60029688 153.62845017 218.546875 153.10546875 C202.41803324 151.42856702 186.32107228 149.60426719 170.25 147.4375 C169.50165894 147.33762787 168.75331787 147.23775574 167.9822998 147.13485718 C159.23742184 145.96258559 150.5490011 144.60462018 141.86683655 143.03337097 C136.6527449 142.09538037 131.44602843 141.37338828 126.1875 140.75 C112.17280623 138.95658994 98.35522115 136.05629166 84.50848389 133.28683472 C80.0809725 132.40385439 75.64934969 131.55610648 71.20703125 130.75 C54.41507471 127.69068865 37.90014814 123.68327341 21.3432312 119.56532288 C16.22627028 118.29501709 11.09893703 117.07869766 5.96118164 115.89501953 C-2.18356032 114.01503943 -10.18561491 111.8431574 -18.17260742 109.37695312 C-22.96367162 107.89914533 -27.76661209 106.49615233 -32.6015625 105.16796875 C-33.72594727 104.85907715 -34.85033203 104.55018555 -36.00878906 104.23193359 C-38.20468137 103.63215622 -40.40189771 103.03719939 -42.60058594 102.44775391 C-47.71424702 101.04768233 -52.38258614 99.62605496 -57 97 C-47.28181711 73.52732823 -34.78085563 51.30937763 -21 30 C-20.28585937 28.89140625 -19.57171875 27.7828125 -18.8359375 26.640625 C-13.88552307 19.10295693 -8.65279406 11.75317647 -3.44140625 4.39453125 C-2.77153687 3.44864136 -2.77153687 3.44864136 -2.08813477 2.48364258 C-1 1 -1 1 0 0 Z " fill="#012369" transform="translate(1020,752)"/>
<path d="M0 0 C0.33 0.66 0.66 1.32 1 2 C-24.19237842 9.53105493 -50.11176056 14.15948344 -75.98815918 18.65039062 C-77.9277018 18.98743632 -79.86669455 19.32764154 -81.80566406 19.66796875 C-112.78059368 25.06059696 -144.10711704 29.01956329 -175.50683594 30.78222656 C-178.03338377 30.96460024 -178.03338377 30.96460024 -180.63061523 31.4753418 C-185.37981358 32.2148554 -190.13017207 32.47162361 -194.92578125 32.75390625 C-196.5781353 32.8520739 -196.5781353 32.8520739 -198.26387024 32.95222473 C-293.90166269 38.46726921 -389.03722166 33.76200317 -536.1953125 7.61328125 C-543.10517604 5.95173381 -550.04450912 4.45823917 -557 3 C-557 2.01 -557 1.02 -557 0 C-554.7572833 -1.61007447 -552.58500511 -2.96361308 -550.1875 -4.3125 C-549.44121338 -4.74054932 -548.69492676 -5.16859863 -547.92602539 -5.60961914 C-476.8918346 -45.83225912 -398.44402948 -70.10686932 -317 -76 C-315.87078125 -76.08677002 -315.87078125 -76.08677002 -314.71875 -76.17529297 C-233.1242249 -82.22664749 -149.45121084 -68.21812683 0 0 Z " fill="#022369" transform="translate(1733,610)"/>
<path d="M0 0 C0.75218559 0.00020016 1.50437119 0.00040031 2.27935028 0.00060654 C6.61613628 0.00290281 10.95278066 0.01369118 15.28950882 0.03648186 C17.22370696 0.04649617 19.15792041 0.05340706 21.09213257 0.06019592 C27.32102119 0.11015316 33.44422294 0.37586361 39.64089966 1.00546265 C44.00448748 1.41443895 48.37526408 1.5563993 52.75390625 1.71484375 C54.73242998 1.79341597 56.71094535 1.87219881 58.68945312 1.95117188 C61.74055261 2.06991921 64.7916933 2.18673062 67.84301758 2.29956055 C80.73652253 2.78159005 93.44499474 3.67815547 106.25 5.25 C109.37278276 5.56866249 112.49838114 5.8470075 115.625 6.125 C159.62278885 10.21771769 159.62278885 10.21771769 178.58935547 13.76220703 C181.98391168 14.38455272 185.38440367 14.97131254 188.78515625 15.55859375 C197.61324579 17.08662263 206.43342853 18.65692378 215.25 20.25 C215.94101807 20.37459595 216.63203613 20.49919189 217.34399414 20.62756348 C236.2221746 24.03916063 254.75396976 28.15376063 273.25 33.25 C270.45443218 36.25533684 267.74150522 38.31632897 264.1640625 40.31640625 C263.16270264 40.87859863 262.16134277 41.44079102 261.12963867 42.02001953 C260.05560791 42.61153809 258.98157715 43.20305664 257.875 43.8125 C256.19531128 44.74231689 256.19531128 44.74231689 254.48168945 45.69091797 C185.56981768 83.5732092 110.45109487 104.89267045 32.25 111.25 C31.37649902 111.32202637 30.50299805 111.39405273 29.60302734 111.46826172 C-48.81936533 117.55289684 -129.35922097 104.26028805 -268.125 45.1875 C-269.09928955 44.66357666 -270.0735791 44.13965332 -271.07739258 43.59985352 C-276.235844 40.77615035 -281.04612409 37.78114652 -285.75 34.25 C-285.42 33.59 -285.09 32.93 -284.75 32.25 C-282.50708008 31.55151367 -282.50708008 31.55151367 -279.51953125 30.91796875 C-278.40384766 30.67626953 -277.28816406 30.43457031 -276.13867188 30.18554688 C-274.95853516 29.93869141 -273.77839844 29.69183594 -272.5625 29.4375 C-270.29798463 28.95272105 -268.03366879 28.4670093 -265.76953125 27.98046875 C-264.52381348 27.71540527 -263.2780957 27.4503418 -261.99462891 27.17724609 C-258.88552724 26.50654256 -255.78641755 25.79921792 -252.68896484 25.07666016 C-239.76827817 22.06679249 -226.82565858 19.48921682 -213.75 17.25 C-212.76011078 17.07947113 -211.77022156 16.90894226 -210.75033569 16.73324585 C-191.14150313 13.36820845 -171.51659492 10.50419084 -151.75 8.25 C-150.84386963 8.14536438 -149.93773926 8.04072876 -149.00415039 7.93292236 C-99.46330077 2.23344785 -49.84069323 -0.02906004 0 0 Z " fill="#012369" transform="translate(1460.75,1500.75)"/>
<path d="M0 0 C0 33.66 0 67.32 0 102 C-7.45519012 102.67774456 -14.77091985 103.19652829 -22.234375 103.39453125 C-24.41685478 103.46067583 -26.59930837 103.52768882 -28.78173828 103.59545898 C-30.48526459 103.64777176 -30.48526459 103.64777176 -32.22320557 103.70114136 C-58.91890461 104.54405887 -85.42344649 106.38893933 -112 109 C-113.41779017 109.1370453 -114.83559512 109.27393776 -116.25341797 109.41064453 C-143.83954951 112.1036015 -171.35228147 115.80217781 -198.625 120.75 C-199.33732788 120.87905731 -200.04965576 121.00811462 -200.78356934 121.14108276 C-214.94265872 123.71823538 -228.98654442 126.71977309 -243 130 C-243.94262695 130.22042969 -244.88525391 130.44085937 -245.85644531 130.66796875 C-250.21757665 131.69192702 -254.57519971 132.72940868 -258.9296875 133.78125 C-262.45185503 134.63194882 -265.9779773 135.46295312 -269.5078125 136.28125 C-271.33869408 136.70767949 -273.16942547 137.13475433 -275 137.5625 C-275.87575684 137.76705811 -276.75151367 137.97161621 -277.65380859 138.18237305 C-283.69308857 139.62005049 -289.54730114 141.33520551 -295.40625 143.3984375 C-299.08919429 144.25261434 -301.77424058 143.74514521 -305.01367188 141.77587891 C-305.65884766 141.26460449 -306.30402344 140.75333008 -306.96875 140.2265625 C-307.69852051 139.65429932 -308.42829102 139.08203613 -309.18017578 138.49243164 C-309.94571777 137.8761792 -310.71125977 137.25992676 -311.5 136.625 C-312.29519043 135.9952124 -313.09038086 135.3654248 -313.90966797 134.71655273 C-320.72964479 129.28760963 -327.41316203 123.70859291 -334 118 C-334.73347656 117.36707031 -335.46695312 116.73414063 -336.22265625 116.08203125 C-338.15911212 114.39966303 -340.08254053 112.70397714 -342 111 C-342.71929688 110.36191406 -343.43859375 109.72382812 -344.1796875 109.06640625 C-346.79989174 106.7254041 -349.40185886 104.36547179 -352 102 C-352.54543457 101.5064502 -353.09086914 101.01290039 -353.65283203 100.50439453 C-363.31156439 91.74202689 -372.37457883 82.53943355 -381.20654297 72.94628906 C-382.85013738 71.16263338 -384.50331746 69.38852978 -386.16015625 67.6171875 C-392.96796592 60.2706303 -392.96796592 60.2706303 -395 56 C-387.66596028 52.8398872 -380.28512511 50.56659969 -372.5625 48.5625 C-371.42159912 48.26102051 -370.28069824 47.95954102 -369.10522461 47.64892578 C-365.73825624 46.76035791 -362.36927668 45.87976698 -359 45 C-357.2498076 44.53848945 -355.49978869 44.07632011 -353.75 43.61328125 C-350.65248353 42.79385427 -347.55343451 41.98066576 -344.453125 41.171875 C-341.541133 40.41035494 -338.63588067 39.62863206 -335.734375 38.828125 C-254.11664933 16.48063211 -167.80655677 6.77899056 -76.00009155 1.51712036 C-73.61953906 1.38502615 -71.2391687 1.24958715 -68.85903931 1.1100769 C-45.85507488 -0.22283442 -23.1129965 0 0 0 Z " fill="#012369" transform="translate(1438,1366)"/>
<path d="M0 0 C0.80315643 0.19192932 1.60631287 0.38385864 2.43380737 0.581604 C6.18359602 1.52574946 9.92644679 2.49013728 13.66308594 3.48510742 C54.04542549 14.1082511 94.64999625 22.85118432 136.08496094 28.17260742 C140.25790133 28.70859394 144.42185731 29.27278737 148.58227539 29.8984375 C162.62533585 32.0013187 176.68845074 33.46762698 190.82714844 34.76245117 C191.99384064 34.87045044 193.16053284 34.97844971 194.36257935 35.08972168 C220.55658713 37.51050287 246.63547595 39.3492768 272.94213867 39.85913086 C274.10903229 39.88332344 274.10903229 39.88332344 275.29949951 39.90800476 C276.73803162 39.93721516 278.17663348 39.96328139 279.61529541 39.98518372 C285.44240719 40.10437745 291.03463993 40.66767767 296.88964844 41.19995117 C296.88964844 74.85995117 296.88964844 108.51995117 296.88964844 143.19995117 C256.8583266 143.19995117 256.8583266 143.19995117 238.57714844 142.51245117 C237.46276398 142.47149323 236.34837952 142.43053528 235.20022583 142.38833618 C177.85448077 140.21034481 120.57050256 134.08679907 63.88964844 125.19995117 C63.10245422 125.07749023 62.31526001 124.9550293 61.50421143 124.82885742 C39.12990246 121.34793361 16.98395107 117.1543964 -5.11035156 112.19995117 C-6.83753418 111.81323242 -6.83753418 111.81323242 -8.59960938 111.41870117 C-15.01579534 109.97407179 -21.42207651 108.49067101 -27.82226562 106.97680664 C-30.09950702 106.43877708 -32.37756016 105.9041761 -34.65625 105.37231445 C-51.30547024 101.4839474 -67.75631639 97.18780433 -84.11035156 92.19995117 C-85.24150391 91.85673828 -85.24150391 91.85673828 -86.39550781 91.5065918 C-89.97214717 90.42022937 -93.54450655 89.32124228 -97.11035156 88.19995117 C-97.11035156 81.72104779 -89.75374626 75.82215182 -85.30957031 71.31323242 C-83.43783753 69.4570327 -81.56028405 67.6066827 -79.67675781 65.76245117 C-76.89538261 62.98530941 -74.33813967 60.08028729 -71.78222656 57.09838867 C-67.07381239 51.75191838 -61.89575018 46.94043584 -56.49707031 42.30541992 C-53.99044285 40.09417246 -51.55316826 37.82058555 -49.11694336 35.5324707 C-42.65628223 29.46806808 -36.05005246 23.71636221 -29.11035156 18.19995117 C-27.88821017 17.21003687 -26.66690738 16.21908665 -25.44628906 15.22729492 C-22.26596445 12.64736429 -19.06017829 10.10212901 -15.83935547 7.57299805 C-14.289446 6.34217471 -12.76632705 5.07779155 -11.24707031 3.80932617 C-10.41820312 3.15448242 -9.58933594 2.49963867 -8.73535156 1.82495117 C-8.04699219 1.2603418 -7.35863281 0.69573242 -6.64941406 0.11401367 C-3.78386234 -0.91758495 -2.88915328 -0.69818468 0 0 Z " fill="#012369" transform="translate(1141.1103515625,636.800048828125)"/>
<path d="M0 0 C2.22007579 1.52067936 4.247124 3.04302401 6.3125 4.75 C6.91352539 5.2351709 7.51455078 5.7203418 8.13378906 6.22021484 C9.42327396 7.26299551 10.70947434 8.30984841 11.99267578 9.36035156 C14.02569438 11.02098801 16.07156543 12.66448492 18.12109375 14.3046875 C24.85175559 19.7066889 31.47152431 25.17716972 37.83203125 31.015625 C39.91868794 32.92557383 42.04388954 34.77945347 44.1875 36.625 C47.31046979 39.34117011 50.22813647 42.20115697 53.12280273 45.15722656 C54.94181397 46.94288097 56.82285328 48.59304482 58.765625 50.2421875 C62.8641373 53.80766718 66.57477612 57.62999863 70.25 61.625 C71.20845825 62.65898926 71.20845825 62.65898926 72.1862793 63.71386719 C73.49144744 65.12259952 74.79509169 66.53274533 76.09716797 67.94433594 C77.90986771 69.90262844 79.7353776 71.84791604 81.56640625 73.7890625 C82.64854706 74.94260556 83.73058412 76.09624597 84.8125 77.25 C85.30975586 77.77416504 85.80701172 78.29833008 86.31933594 78.83837891 C88.73383235 81.43043681 90.50531501 83.80191082 92 87 C83.98478728 90.52224395 75.77449606 92.8187328 67.3125 95 C66.05244141 95.33 64.79238281 95.66 63.49414062 96 C60.93499632 96.67022091 58.37525508 97.33816641 55.81494141 98.00390625 C52.11673542 98.96952 48.42297135 99.95032175 44.73046875 100.9375 C43.49159912 101.2672583 42.25272949 101.5970166 40.97631836 101.93676758 C38.18688993 102.68028609 35.40074719 103.43515067 32.61547852 104.1940918 C20.41145039 107.49498698 8.12875846 110.25117701 -4.25 112.8125 C-5.27192444 113.02521545 -6.29384888 113.23793091 -7.34674072 113.45709229 C-29.67618901 118.08934522 -52.11430547 121.98281986 -74.62548828 125.61584473 C-76.76260928 125.96159425 -78.89904432 126.31116515 -81.03515625 126.66308594 C-98.60296716 129.54728081 -116.24611481 131.73271393 -133.93017578 133.76208496 C-135.34013343 133.92415193 -136.74995966 134.0873653 -138.15966797 134.25158691 C-149.42508359 135.56182266 -160.69347259 136.6173227 -172 137.5 C-173.64307402 137.6293793 -175.28614029 137.75885691 -176.92919922 137.88842773 C-179.38478693 138.08198433 -181.84039412 138.27525003 -184.29611206 138.46714783 C-188.66076511 138.80943974 -193.02242873 139.17267117 -197.3828125 139.56640625 C-212.21233143 140.87338068 -227.06610308 141.50958165 -241.9375 142.125 C-242.96514465 142.16956329 -243.99278931 142.21412659 -245.05157471 142.26004028 C-264.39362534 143.08693523 -283.60984455 143 -303 143 C-303 109.34 -303 75.68 -303 41 C-281.715 40.01 -281.715 40.01 -260 39 C-245.57653852 38.20173434 -245.57653852 38.20173434 -231.16113281 37.28417969 C-230.48264282 37.23789429 -229.80415283 37.19160889 -229.10510254 37.1439209 C-228.4104187 37.096427 -227.71573486 37.04893311 -227 37 C-225.91736877 36.92682556 -225.91736877 36.92682556 -224.81286621 36.85217285 C-152.76348835 31.96300975 -76.35684738 23.16960359 -7.78051758 -0.36767578 C-4.72238156 -1.06313388 -2.97276088 -0.93820733 0 0 Z " fill="#012369" transform="translate(1774,637)"/>
<path d="M0 0 C40.11002818 0 40.11002818 0 59.6875 0.8125 C60.78487488 0.85634827 61.88224976 0.90019653 63.01287842 0.94537354 C83.72498067 1.78114787 104.35596559 3.14594559 125 5 C126.73632253 5.15387171 128.4726508 5.30767871 130.20898438 5.46142578 C141.70576361 6.48556378 153.19369283 7.58601522 164.67590332 8.76226807 C166.80290548 8.97983919 168.93022793 9.193971 171.05761719 9.40771484 C240.30599865 16.52746634 310.36464012 29.93516652 377 50 C377.84788086 50.25201172 378.69576172 50.50402344 379.56933594 50.76367188 C381.8402215 51.43917109 384.10814872 52.12360117 386.375 52.8125 C387.62023438 53.19019531 388.86546875 53.56789063 390.1484375 53.95703125 C393 55 393 55 395 57 C394.43152344 57.6290625 393.86304688 58.258125 393.27734375 58.90625 C389.6095463 62.97205552 385.95136274 67.04087441 382.375 71.1875 C379.65875397 74.31055707 376.79867686 77.22829522 373.8425293 80.12304688 C372.05820655 81.94070598 370.40947871 83.82026937 368.76171875 85.76171875 C365.17606257 89.88356553 361.32911811 93.61522345 357.3125 97.3125 C356.61552002 97.95912598 355.91854004 98.60575195 355.20043945 99.27197266 C353.79451716 100.57492826 352.38691601 101.87607497 350.97753906 103.17529297 C349.20584662 104.81006202 347.44135418 106.45210187 345.6796875 108.09765625 C339.32987013 114.00744778 332.77349147 119.58297999 326 125 C324.77557444 125.9929137 323.55164416 126.98643835 322.328125 127.98046875 C319.14938245 130.55838079 315.94378259 133.09978343 312.72460938 135.62695312 C311.1841903 136.85335699 309.67561196 138.11951033 308.171875 139.390625 C302.53270376 143.8948687 302.53270376 143.8948687 298.8359375 144.1484375 C296.11693037 143.67191048 293.62300818 142.8641298 291 142 C289.05311527 141.48218982 287.10585926 140.96563309 285.1550293 140.46289062 C282.70735875 139.8317748 280.26369975 139.18655898 277.8203125 138.5390625 C276.43054199 138.17216309 276.43054199 138.17216309 275.01269531 137.79785156 C272.92785782 137.24572442 270.8439293 136.69015772 268.76074219 136.13183594 C251.21488479 131.45657639 233.58612168 127.59430445 215.75 124.1875 C214.7662439 123.99877319 213.78248779 123.81004639 212.7689209 123.61560059 C201.92510967 121.54504371 191.07688446 119.6464406 180.15057373 118.06549072 C174.89104988 117.30098761 169.66465859 116.42445485 164.4375 115.46484375 C155.33320463 113.81413654 146.18765692 112.64171237 137 111.5625 C135.65810104 111.40433807 135.65810104 111.40433807 134.28909302 111.24298096 C105.41239144 107.86961261 76.47447132 105.50930381 47.4375 104.0859375 C46.75649231 104.05254902 46.07548462 104.01916054 45.37384033 103.98476028 C30.25245155 103.25080231 15.1254978 102.64227167 0 102 C0 68.34 0 34.68 0 0 Z " fill="#012369" transform="translate(1471,1366)"/>
<path d="M0 0 C0.66 0.33 1.32 0.66 2 1 C-8.89 11.89 -19.78 22.78 -31 34 C-31.66 33.67 -32.32 33.34 -33 33 C-23.93839619 23.01807705 -14.53558399 13.57892139 -4.5871582 4.47949219 C-3.02151427 3.02005483 -1.50410608 1.52255614 0 0 Z " fill="#132B6B" transform="translate(1093,671)"/>
</svg>
